solid (STL file generated from eDrawings)
  facet normal -9.914447e-01 0.000000e+00 1.305274e-01
    outer loop
      vertex -1.250000e-01 -1.250000e-03 9.500000e-02
      vertex -1.246593e-01 -1.250000e-03 9.758819e-02
      vertex -1.250000e-01 1.250000e-03 9.500000e-02
    endloop
  endfacet
  facet normal -9.914447e-01 0.000000e+00 1.305274e-01
    outer loop
      vertex -1.250000e-01 1.250000e-03 9.500000e-02
      vertex -1.246593e-01 -1.250000e-03 9.758819e-02
      vertex -1.246593e-01 1.250000e-03 9.758819e-02
    endloop
  endfacet
  facet normal -1.305246e-01 0.000000e+00 9.914451e-01
    outer loop
      vertex -1.150000e-01 1.250000e-03 1.050000e-01
      vertex -1.175882e-01 1.250000e-03 1.046593e-01
      vertex -1.150000e-01 -1.250000e-03 1.050000e-01
    endloop
  endfacet
  facet normal -1.305246e-01 0.000000e+00 9.914451e-01
    outer loop
      vertex -1.150000e-01 -1.250000e-03 1.050000e-01
      vertex -1.175882e-01 1.250000e-03 1.046593e-01
      vertex -1.175882e-01 -1.250000e-03 1.046593e-01
    endloop
  endfacet
  facet normal -3.826838e-01 0.000000e+00 9.238794e-01
    outer loop
      vertex -1.175882e-01 -1.250000e-03 1.046593e-01
      vertex -1.175882e-01 1.250000e-03 1.046593e-01
      vertex -1.200000e-01 1.250000e-03 1.036603e-01
    endloop
  endfacet
  facet normal -3.826838e-01 0.000000e+00 9.238794e-01
    outer loop
      vertex -1.175882e-01 -1.250000e-03 1.046593e-01
      vertex -1.200000e-01 1.250000e-03 1.036603e-01
      vertex -1.200000e-01 -1.250000e-03 1.036603e-01
    endloop
  endfacet
  facet normal -6.087615e-01 0.000000e+00 7.933533e-01
    outer loop
      vertex -1.200000e-01 -1.250000e-03 1.036603e-01
      vertex -1.200000e-01 1.250000e-03 1.036603e-01
      vertex -1.220711e-01 1.250000e-03 1.020711e-01
    endloop
  endfacet
  facet normal -6.087615e-01 0.000000e+00 7.933533e-01
    outer loop
      vertex -1.200000e-01 -1.250000e-03 1.036603e-01
      vertex -1.220711e-01 1.250000e-03 1.020711e-01
      vertex -1.220711e-01 -1.250000e-03 1.020711e-01
    endloop
  endfacet
  facet normal -7.933533e-01 0.000000e+00 6.087615e-01
    outer loop
      vertex -1.220711e-01 -1.250000e-03 1.020711e-01
      vertex -1.220711e-01 1.250000e-03 1.020711e-01
      vertex -1.236603e-01 1.250000e-03 1.000000e-01
    endloop
  endfacet
  facet normal -7.933533e-01 0.000000e+00 6.087615e-01
    outer loop
      vertex -1.220711e-01 -1.250000e-03 1.020711e-01
      vertex -1.236603e-01 1.250000e-03 1.000000e-01
      vertex -1.236603e-01 -1.250000e-03 1.000000e-01
    endloop
  endfacet
  facet normal -9.238798e-01 0.000000e+00 3.826828e-01
    outer loop
      vertex -1.236603e-01 -1.250000e-03 1.000000e-01
      vertex -1.236603e-01 1.250000e-03 1.000000e-01
      vertex -1.246593e-01 1.250000e-03 9.758819e-02
    endloop
  endfacet
  facet normal -9.238798e-01 0.000000e+00 3.826828e-01
    outer loop
      vertex -1.236603e-01 -1.250000e-03 1.000000e-01
      vertex -1.246593e-01 1.250000e-03 9.758819e-02
      vertex -1.246593e-01 -1.250000e-03 9.758819e-02
    endloop
  endfacet
  facet normal -9.914447e-01 0.000000e+00 -1.305274e-01
    outer loop
      vertex -1.250000e-01 1.250000e-03 1.000000e-02
      vertex -1.246593e-01 1.250000e-03 7.411810e-03
      vertex -1.250000e-01 -1.250000e-03 1.000000e-02
    endloop
  endfacet
  facet normal -9.914447e-01 -0.000000e+00 -1.305274e-01
    outer loop
      vertex -1.250000e-01 -1.250000e-03 1.000000e-02
      vertex -1.246593e-01 1.250000e-03 7.411810e-03
      vertex -1.246593e-01 -1.250000e-03 7.411810e-03
    endloop
  endfacet
  facet normal -9.238796e-01 -0.000000e+00 -3.826832e-01
    outer loop
      vertex -1.246593e-01 -1.250000e-03 7.411810e-03
      vertex -1.246593e-01 1.250000e-03 7.411810e-03
      vertex -1.236603e-01 1.250000e-03 5.000000e-03
    endloop
  endfacet
  facet normal -9.238796e-01 -0.000000e+00 -3.826832e-01
    outer loop
      vertex -1.246593e-01 -1.250000e-03 7.411810e-03
      vertex -1.236603e-01 1.250000e-03 5.000000e-03
      vertex -1.236603e-01 -1.250000e-03 5.000000e-03
    endloop
  endfacet
  facet normal -7.933533e-01 -0.000000e+00 -6.087615e-01
    outer loop
      vertex -1.236603e-01 -1.250000e-03 5.000000e-03
      vertex -1.236603e-01 1.250000e-03 5.000000e-03
      vertex -1.220711e-01 1.250000e-03 2.928932e-03
    endloop
  endfacet
  facet normal -7.933533e-01 -0.000000e+00 -6.087615e-01
    outer loop
      vertex -1.236603e-01 -1.250000e-03 5.000000e-03
      vertex -1.220711e-01 1.250000e-03 2.928932e-03
      vertex -1.220711e-01 -1.250000e-03 2.928932e-03
    endloop
  endfacet
  facet normal -6.087614e-01 -0.000000e+00 -7.933533e-01
    outer loop
      vertex -1.220711e-01 -1.250000e-03 2.928932e-03
      vertex -1.220711e-01 1.250000e-03 2.928932e-03
      vertex -1.200000e-01 1.250000e-03 1.339746e-03
    endloop
  endfacet
  facet normal -6.087614e-01 -0.000000e+00 -7.933533e-01
    outer loop
      vertex -1.220711e-01 -1.250000e-03 2.928932e-03
      vertex -1.200000e-01 1.250000e-03 1.339746e-03
      vertex -1.200000e-01 -1.250000e-03 1.339746e-03
    endloop
  endfacet
  facet normal -3.826840e-01 0.000000e+00 -9.238793e-01
    outer loop
      vertex -1.175882e-01 -1.250000e-03 3.407417e-04
      vertex -1.200000e-01 -1.250000e-03 1.339746e-03
      vertex -1.175882e-01 1.250000e-03 3.407417e-04
    endloop
  endfacet
  facet normal -3.826840e-01 0.000000e+00 -9.238793e-01
    outer loop
      vertex -1.175882e-01 1.250000e-03 3.407417e-04
      vertex -1.200000e-01 -1.250000e-03 1.339746e-03
      vertex -1.200000e-01 1.250000e-03 1.339746e-03
    endloop
  endfacet
  facet normal -1.305262e-01 0.000000e+00 -9.914449e-01
    outer loop
      vertex -1.150000e-01 -1.250000e-03 0.000000e+00
      vertex -1.175882e-01 -1.250000e-03 3.407417e-04
      vertex -1.150000e-01 1.250000e-03 0.000000e+00
    endloop
  endfacet
  facet normal -1.305262e-01 0.000000e+00 -9.914449e-01
    outer loop
      vertex -1.150000e-01 1.250000e-03 0.000000e+00
      vertex -1.175882e-01 -1.250000e-03 3.407417e-04
      vertex -1.175882e-01 1.250000e-03 3.407417e-04
    endloop
  endfacet
  facet normal 3.826828e-01 0.000000e+00 -9.238798e-01
    outer loop
      vertex 1.875000e-01 6.875000e-02 5.683013e-02
      vertex 1.875000e-01 7.125000e-02 5.683013e-02
      vertex 1.887059e-01 6.875000e-02 5.732963e-02
    endloop
  endfacet
  facet normal 3.826828e-01 0.000000e+00 -9.238798e-01
    outer loop
      vertex 1.887059e-01 6.875000e-02 5.732963e-02
      vertex 1.875000e-01 7.125000e-02 5.683013e-02
      vertex 1.887059e-01 7.125000e-02 5.732963e-02
    endloop
  endfacet
  facet normal 1.305277e-01 0.000000e+00 -9.914446e-01
    outer loop
      vertex 1.887059e-01 6.875000e-02 5.732963e-02
      vertex 1.887059e-01 7.125000e-02 5.732963e-02
      vertex 1.900000e-01 6.875000e-02 5.750000e-02
    endloop
  endfacet
  facet normal 1.305277e-01 0.000000e+00 -9.914446e-01
    outer loop
      vertex 1.900000e-01 6.875000e-02 5.750000e-02
      vertex 1.887059e-01 7.125000e-02 5.732963e-02
      vertex 1.900000e-01 7.125000e-02 5.750000e-02
    endloop
  endfacet
  facet normal -1.305277e-01 -0.000000e+00 -9.914446e-01
    outer loop
      vertex 1.900000e-01 6.875000e-02 5.750000e-02
      vertex 1.900000e-01 7.125000e-02 5.750000e-02
      vertex 1.912941e-01 6.875000e-02 5.732963e-02
    endloop
  endfacet
  facet normal -1.305277e-01 0.000000e+00 -9.914446e-01
    outer loop
      vertex 1.912941e-01 6.875000e-02 5.732963e-02
      vertex 1.900000e-01 7.125000e-02 5.750000e-02
      vertex 1.912941e-01 7.125000e-02 5.732963e-02
    endloop
  endfacet
  facet normal -3.826828e-01 -0.000000e+00 -9.238798e-01
    outer loop
      vertex 1.912941e-01 6.875000e-02 5.732963e-02
      vertex 1.912941e-01 7.125000e-02 5.732963e-02
      vertex 1.925000e-01 6.875000e-02 5.683013e-02
    endloop
  endfacet
  facet normal -3.826828e-01 0.000000e+00 -9.238798e-01
    outer loop
      vertex 1.925000e-01 6.875000e-02 5.683013e-02
      vertex 1.912941e-01 7.125000e-02 5.732963e-02
      vertex 1.925000e-01 7.125000e-02 5.683013e-02
    endloop
  endfacet
  facet normal -6.087587e-01 -0.000000e+00 -7.933554e-01
    outer loop
      vertex 1.925000e-01 6.875000e-02 5.683013e-02
      vertex 1.925000e-01 7.125000e-02 5.683013e-02
      vertex 1.935355e-01 6.875000e-02 5.603553e-02
    endloop
  endfacet
  facet normal -6.087587e-01 0.000000e+00 -7.933554e-01
    outer loop
      vertex 1.935355e-01 6.875000e-02 5.603553e-02
      vertex 1.925000e-01 7.125000e-02 5.683013e-02
      vertex 1.935355e-01 7.125000e-02 5.603553e-02
    endloop
  endfacet
  facet normal -7.933546e-01 -0.000000e+00 -6.087597e-01
    outer loop
      vertex 1.935355e-01 6.875000e-02 5.603553e-02
      vertex 1.935355e-01 7.125000e-02 5.603553e-02
      vertex 1.943301e-01 6.875000e-02 5.500000e-02
    endloop
  endfacet
  facet normal -7.933546e-01 0.000000e+00 -6.087597e-01
    outer loop
      vertex 1.943301e-01 6.875000e-02 5.500000e-02
      vertex 1.935355e-01 7.125000e-02 5.603553e-02
      vertex 1.943301e-01 7.125000e-02 5.500000e-02
    endloop
  endfacet
  facet normal -9.238798e-01 -0.000000e+00 -3.826828e-01
    outer loop
      vertex 1.943301e-01 6.875000e-02 5.500000e-02
      vertex 1.943301e-01 7.125000e-02 5.500000e-02
      vertex 1.948296e-01 6.875000e-02 5.379409e-02
    endloop
  endfacet
  facet normal -9.238798e-01 0.000000e+00 -3.826828e-01
    outer loop
      vertex 1.948296e-01 6.875000e-02 5.379409e-02
      vertex 1.943301e-01 7.125000e-02 5.500000e-02
      vertex 1.948296e-01 7.125000e-02 5.379409e-02
    endloop
  endfacet
  facet normal -9.914454e-01 -0.000000e+00 -1.305218e-01
    outer loop
      vertex 1.948296e-01 6.875000e-02 5.379409e-02
      vertex 1.948296e-01 7.125000e-02 5.379409e-02
      vertex 1.950000e-01 6.875000e-02 5.250000e-02
    endloop
  endfacet
  facet normal -9.914454e-01 0.000000e+00 -1.305218e-01
    outer loop
      vertex 1.950000e-01 6.875000e-02 5.250000e-02
      vertex 1.948296e-01 7.125000e-02 5.379409e-02
      vertex 1.950000e-01 7.125000e-02 5.250000e-02
    endloop
  endfacet
  facet normal -9.914454e-01 0.000000e+00 1.305218e-01
    outer loop
      vertex 1.950000e-01 6.875000e-02 5.250000e-02
      vertex 1.950000e-01 7.125000e-02 5.250000e-02
      vertex 1.948296e-01 6.875000e-02 5.120590e-02
    endloop
  endfacet
  facet normal -9.914454e-01 0.000000e+00 1.305218e-01
    outer loop
      vertex 1.948296e-01 6.875000e-02 5.120590e-02
      vertex 1.950000e-01 7.125000e-02 5.250000e-02
      vertex 1.948296e-01 7.125000e-02 5.120590e-02
    endloop
  endfacet
  facet normal -9.238794e-01 0.000000e+00 3.826838e-01
    outer loop
      vertex 1.948296e-01 6.875000e-02 5.120590e-02
      vertex 1.948296e-01 7.125000e-02 5.120590e-02
      vertex 1.943301e-01 6.875000e-02 5.000000e-02
    endloop
  endfacet
  facet normal -9.238794e-01 0.000000e+00 3.826838e-01
    outer loop
      vertex 1.943301e-01 6.875000e-02 5.000000e-02
      vertex 1.948296e-01 7.125000e-02 5.120590e-02
      vertex 1.943301e-01 7.125000e-02 5.000000e-02
    endloop
  endfacet
  facet normal -7.933546e-01 0.000000e+00 6.087597e-01
    outer loop
      vertex 1.943301e-01 6.875000e-02 5.000000e-02
      vertex 1.943301e-01 7.125000e-02 5.000000e-02
      vertex 1.935355e-01 6.875000e-02 4.896447e-02
    endloop
  endfacet
  facet normal -7.933546e-01 0.000000e+00 6.087597e-01
    outer loop
      vertex 1.935355e-01 6.875000e-02 4.896447e-02
      vertex 1.943301e-01 7.125000e-02 5.000000e-02
      vertex 1.935355e-01 7.125000e-02 4.896447e-02
    endloop
  endfacet
  facet normal -6.087587e-01 0.000000e+00 7.933554e-01
    outer loop
      vertex 1.935355e-01 6.875000e-02 4.896447e-02
      vertex 1.935355e-01 7.125000e-02 4.896447e-02
      vertex 1.925000e-01 6.875000e-02 4.816987e-02
    endloop
  endfacet
  facet normal -6.087587e-01 0.000000e+00 7.933554e-01
    outer loop
      vertex 1.925000e-01 6.875000e-02 4.816987e-02
      vertex 1.935355e-01 7.125000e-02 4.896447e-02
      vertex 1.925000e-01 7.125000e-02 4.816987e-02
    endloop
  endfacet
  facet normal -3.826828e-01 0.000000e+00 9.238798e-01
    outer loop
      vertex 1.925000e-01 6.875000e-02 4.816987e-02
      vertex 1.925000e-01 7.125000e-02 4.816987e-02
      vertex 1.912941e-01 6.875000e-02 4.767037e-02
    endloop
  endfacet
  facet normal -3.826828e-01 0.000000e+00 9.238798e-01
    outer loop
      vertex 1.912941e-01 6.875000e-02 4.767037e-02
      vertex 1.925000e-01 7.125000e-02 4.816987e-02
      vertex 1.912941e-01 7.125000e-02 4.767037e-02
    endloop
  endfacet
  facet normal -1.305277e-01 0.000000e+00 9.914446e-01
    outer loop
      vertex 1.912941e-01 6.875000e-02 4.767037e-02
      vertex 1.912941e-01 7.125000e-02 4.767037e-02
      vertex 1.900000e-01 6.875000e-02 4.750000e-02
    endloop
  endfacet
  facet normal -1.305277e-01 0.000000e+00 9.914446e-01
    outer loop
      vertex 1.900000e-01 6.875000e-02 4.750000e-02
      vertex 1.912941e-01 7.125000e-02 4.767037e-02
      vertex 1.900000e-01 7.125000e-02 4.750000e-02
    endloop
  endfacet
  facet normal 1.305277e-01 0.000000e+00 9.914446e-01
    outer loop
      vertex 1.900000e-01 6.875000e-02 4.750000e-02
      vertex 1.900000e-01 7.125000e-02 4.750000e-02
      vertex 1.887059e-01 6.875000e-02 4.767037e-02
    endloop
  endfacet
  facet normal 1.305277e-01 0.000000e+00 9.914446e-01
    outer loop
      vertex 1.887059e-01 6.875000e-02 4.767037e-02
      vertex 1.900000e-01 7.125000e-02 4.750000e-02
      vertex 1.887059e-01 7.125000e-02 4.767037e-02
    endloop
  endfacet
  facet normal 3.826828e-01 0.000000e+00 9.238798e-01
    outer loop
      vertex 1.887059e-01 6.875000e-02 4.767037e-02
      vertex 1.887059e-01 7.125000e-02 4.767037e-02
      vertex 1.875000e-01 6.875000e-02 4.816987e-02
    endloop
  endfacet
  facet normal 3.826828e-01 0.000000e+00 9.238798e-01
    outer loop
      vertex 1.875000e-01 6.875000e-02 4.816987e-02
      vertex 1.887059e-01 7.125000e-02 4.767037e-02
      vertex 1.875000e-01 7.125000e-02 4.816987e-02
    endloop
  endfacet
  facet normal 6.087587e-01 0.000000e+00 7.933554e-01
    outer loop
      vertex 1.875000e-01 6.875000e-02 4.816987e-02
      vertex 1.875000e-01 7.125000e-02 4.816987e-02
      vertex 1.864645e-01 6.875000e-02 4.896447e-02
    endloop
  endfacet
  facet normal 6.087587e-01 0.000000e+00 7.933554e-01
    outer loop
      vertex 1.864645e-01 6.875000e-02 4.896447e-02
      vertex 1.875000e-01 7.125000e-02 4.816987e-02
      vertex 1.864645e-01 7.125000e-02 4.896447e-02
    endloop
  endfacet
  facet normal 7.933546e-01 0.000000e+00 6.087597e-01
    outer loop
      vertex 1.864645e-01 6.875000e-02 4.896447e-02
      vertex 1.864645e-01 7.125000e-02 4.896447e-02
      vertex 1.856699e-01 6.875000e-02 5.000000e-02
    endloop
  endfacet
  facet normal 7.933546e-01 0.000000e+00 6.087597e-01
    outer loop
      vertex 1.856699e-01 6.875000e-02 5.000000e-02
      vertex 1.864645e-01 7.125000e-02 4.896447e-02
      vertex 1.856699e-01 7.125000e-02 5.000000e-02
    endloop
  endfacet
  facet normal 9.238794e-01 0.000000e+00 3.826838e-01
    outer loop
      vertex 1.856699e-01 6.875000e-02 5.000000e-02
      vertex 1.856699e-01 7.125000e-02 5.000000e-02
      vertex 1.851704e-01 6.875000e-02 5.120590e-02
    endloop
  endfacet
  facet normal 9.238794e-01 0.000000e+00 3.826838e-01
    outer loop
      vertex 1.851704e-01 6.875000e-02 5.120590e-02
      vertex 1.856699e-01 7.125000e-02 5.000000e-02
      vertex 1.851704e-01 7.125000e-02 5.120590e-02
    endloop
  endfacet
  facet normal 9.914454e-01 0.000000e+00 1.305218e-01
    outer loop
      vertex 1.851704e-01 6.875000e-02 5.120590e-02
      vertex 1.851704e-01 7.125000e-02 5.120590e-02
      vertex 1.850000e-01 6.875000e-02 5.250000e-02
    endloop
  endfacet
  facet normal 9.914454e-01 0.000000e+00 1.305218e-01
    outer loop
      vertex 1.850000e-01 6.875000e-02 5.250000e-02
      vertex 1.851704e-01 7.125000e-02 5.120590e-02
      vertex 1.850000e-01 7.125000e-02 5.250000e-02
    endloop
  endfacet
  facet normal 9.914454e-01 0.000000e+00 -1.305218e-01
    outer loop
      vertex 1.850000e-01 6.875000e-02 5.250000e-02
      vertex 1.850000e-01 7.125000e-02 5.250000e-02
      vertex 1.851704e-01 6.875000e-02 5.379409e-02
    endloop
  endfacet
  facet normal 9.914454e-01 0.000000e+00 -1.305218e-01
    outer loop
      vertex 1.851704e-01 6.875000e-02 5.379409e-02
      vertex 1.850000e-01 7.125000e-02 5.250000e-02
      vertex 1.851704e-01 7.125000e-02 5.379409e-02
    endloop
  endfacet
  facet normal 9.238798e-01 0.000000e+00 -3.826828e-01
    outer loop
      vertex 1.851704e-01 6.875000e-02 5.379409e-02
      vertex 1.851704e-01 7.125000e-02 5.379409e-02
      vertex 1.856699e-01 6.875000e-02 5.500000e-02
    endloop
  endfacet
  facet normal 9.238798e-01 0.000000e+00 -3.826828e-01
    outer loop
      vertex 1.856699e-01 6.875000e-02 5.500000e-02
      vertex 1.851704e-01 7.125000e-02 5.379409e-02
      vertex 1.856699e-01 7.125000e-02 5.500000e-02
    endloop
  endfacet
  facet normal 7.933546e-01 0.000000e+00 -6.087597e-01
    outer loop
      vertex 1.856699e-01 6.875000e-02 5.500000e-02
      vertex 1.856699e-01 7.125000e-02 5.500000e-02
      vertex 1.864645e-01 6.875000e-02 5.603553e-02
    endloop
  endfacet
  facet normal 7.933546e-01 0.000000e+00 -6.087597e-01
    outer loop
      vertex 1.864645e-01 6.875000e-02 5.603553e-02
      vertex 1.856699e-01 7.125000e-02 5.500000e-02
      vertex 1.864645e-01 7.125000e-02 5.603553e-02
    endloop
  endfacet
  facet normal 6.087587e-01 0.000000e+00 -7.933554e-01
    outer loop
      vertex 1.864645e-01 6.875000e-02 5.603553e-02
      vertex 1.864645e-01 7.125000e-02 5.603553e-02
      vertex 1.875000e-01 6.875000e-02 5.683013e-02
    endloop
  endfacet
  facet normal 6.087587e-01 0.000000e+00 -7.933554e-01
    outer loop
      vertex 1.875000e-01 6.875000e-02 5.683013e-02
      vertex 1.864645e-01 7.125000e-02 5.603553e-02
      vertex 1.875000e-01 7.125000e-02 5.683013e-02
    endloop
  endfacet
  facet normal -1.305235e-01 -0.000000e+00 -9.914452e-01
    outer loop
      vertex -6.200000e-02 -1.250000e-03 6.000000e-02
      vertex -6.200000e-02 1.250000e-03 6.000000e-02
      vertex -6.148236e-02 -1.250000e-03 5.993185e-02
    endloop
  endfacet
  facet normal -1.305235e-01 0.000000e+00 -9.914452e-01
    outer loop
      vertex -6.148236e-02 -1.250000e-03 5.993185e-02
      vertex -6.200000e-02 1.250000e-03 6.000000e-02
      vertex -6.148236e-02 1.250000e-03 5.993185e-02
    endloop
  endfacet
  facet normal -3.826858e-01 -0.000000e+00 -9.238786e-01
    outer loop
      vertex -6.148236e-02 -1.250000e-03 5.993185e-02
      vertex -6.148236e-02 1.250000e-03 5.993185e-02
      vertex -6.100000e-02 -1.250000e-03 5.973205e-02
    endloop
  endfacet
  facet normal -3.826858e-01 0.000000e+00 -9.238786e-01
    outer loop
      vertex -6.100000e-02 -1.250000e-03 5.973205e-02
      vertex -6.148236e-02 1.250000e-03 5.993185e-02
      vertex -6.100000e-02 1.250000e-03 5.973205e-02
    endloop
  endfacet
  facet normal -6.087565e-01 -0.000000e+00 -7.933571e-01
    outer loop
      vertex -6.100000e-02 -1.250000e-03 5.973205e-02
      vertex -6.100000e-02 1.250000e-03 5.973205e-02
      vertex -6.058579e-02 -1.250000e-03 5.941422e-02
    endloop
  endfacet
  facet normal -6.087565e-01 0.000000e+00 -7.933571e-01
    outer loop
      vertex -6.058579e-02 -1.250000e-03 5.941422e-02
      vertex -6.100000e-02 1.250000e-03 5.973205e-02
      vertex -6.058579e-02 1.250000e-03 5.941422e-02
    endloop
  endfacet
  facet normal -7.933536e-01 -0.000000e+00 -6.087610e-01
    outer loop
      vertex -6.058579e-02 -1.250000e-03 5.941422e-02
      vertex -6.058579e-02 1.250000e-03 5.941422e-02
      vertex -6.026795e-02 -1.250000e-03 5.900000e-02
    endloop
  endfacet
  facet normal -7.933536e-01 0.000000e+00 -6.087610e-01
    outer loop
      vertex -6.026795e-02 -1.250000e-03 5.900000e-02
      vertex -6.058579e-02 1.250000e-03 5.941422e-02
      vertex -6.026795e-02 1.250000e-03 5.900000e-02
    endloop
  endfacet
  facet normal -9.238811e-01 -0.000000e+00 -3.826797e-01
    outer loop
      vertex -6.026795e-02 -1.250000e-03 5.900000e-02
      vertex -6.026795e-02 1.250000e-03 5.900000e-02
      vertex -6.006815e-02 -1.250000e-03 5.851764e-02
    endloop
  endfacet
  facet normal -9.238811e-01 0.000000e+00 -3.826797e-01
    outer loop
      vertex -6.006815e-02 -1.250000e-03 5.851764e-02
      vertex -6.026795e-02 1.250000e-03 5.900000e-02
      vertex -6.006815e-02 1.250000e-03 5.851764e-02
    endloop
  endfacet
  facet normal -9.914444e-01 -0.000000e+00 -1.305296e-01
    outer loop
      vertex -6.006815e-02 -1.250000e-03 5.851764e-02
      vertex -6.006815e-02 1.250000e-03 5.851764e-02
      vertex -6.000000e-02 -1.250000e-03 5.800000e-02
    endloop
  endfacet
  facet normal -9.914444e-01 0.000000e+00 -1.305296e-01
    outer loop
      vertex -6.000000e-02 -1.250000e-03 5.800000e-02
      vertex -6.006815e-02 1.250000e-03 5.851764e-02
      vertex -6.000000e-02 1.250000e-03 5.800000e-02
    endloop
  endfacet
  facet normal -9.914443e-01 0.000000e+00 1.305306e-01
    outer loop
      vertex -6.000000e-02 -1.250000e-03 4.700000e-02
      vertex -6.000000e-02 1.250000e-03 4.700000e-02
      vertex -6.006815e-02 -1.250000e-03 4.648236e-02
    endloop
  endfacet
  facet normal -9.914443e-01 0.000000e+00 1.305306e-01
    outer loop
      vertex -6.006815e-02 -1.250000e-03 4.648236e-02
      vertex -6.000000e-02 1.250000e-03 4.700000e-02
      vertex -6.006815e-02 1.250000e-03 4.648236e-02
    endloop
  endfacet
  facet normal -9.238811e-01 0.000000e+00 3.826797e-01
    outer loop
      vertex -6.006815e-02 -1.250000e-03 4.648236e-02
      vertex -6.006815e-02 1.250000e-03 4.648236e-02
      vertex -6.026795e-02 -1.250000e-03 4.600000e-02
    endloop
  endfacet
  facet normal -9.238811e-01 0.000000e+00 3.826797e-01
    outer loop
      vertex -6.026795e-02 -1.250000e-03 4.600000e-02
      vertex -6.006815e-02 1.250000e-03 4.648236e-02
      vertex -6.026795e-02 1.250000e-03 4.600000e-02
    endloop
  endfacet
  facet normal -7.933536e-01 0.000000e+00 6.087610e-01
    outer loop
      vertex -6.026795e-02 -1.250000e-03 4.600000e-02
      vertex -6.026795e-02 1.250000e-03 4.600000e-02
      vertex -6.058579e-02 -1.250000e-03 4.558579e-02
    endloop
  endfacet
  facet normal -7.933536e-01 0.000000e+00 6.087610e-01
    outer loop
      vertex -6.058579e-02 -1.250000e-03 4.558579e-02
      vertex -6.026795e-02 1.250000e-03 4.600000e-02
      vertex -6.058579e-02 1.250000e-03 4.558579e-02
    endloop
  endfacet
  facet normal -6.087565e-01 0.000000e+00 7.933571e-01
    outer loop
      vertex -6.058579e-02 -1.250000e-03 4.558579e-02
      vertex -6.058579e-02 1.250000e-03 4.558579e-02
      vertex -6.100000e-02 -1.250000e-03 4.526795e-02
    endloop
  endfacet
  facet normal -6.087565e-01 0.000000e+00 7.933571e-01
    outer loop
      vertex -6.100000e-02 -1.250000e-03 4.526795e-02
      vertex -6.058579e-02 1.250000e-03 4.558579e-02
      vertex -6.100000e-02 1.250000e-03 4.526795e-02
    endloop
  endfacet
  facet normal -3.826858e-01 0.000000e+00 9.238786e-01
    outer loop
      vertex -6.100000e-02 -1.250000e-03 4.526795e-02
      vertex -6.100000e-02 1.250000e-03 4.526795e-02
      vertex -6.148236e-02 -1.250000e-03 4.506815e-02
    endloop
  endfacet
  facet normal -3.826858e-01 0.000000e+00 9.238786e-01
    outer loop
      vertex -6.148236e-02 -1.250000e-03 4.506815e-02
      vertex -6.100000e-02 1.250000e-03 4.526795e-02
      vertex -6.148236e-02 1.250000e-03 4.506815e-02
    endloop
  endfacet
  facet normal -1.305235e-01 0.000000e+00 9.914452e-01
    outer loop
      vertex -6.148236e-02 -1.250000e-03 4.506815e-02
      vertex -6.148236e-02 1.250000e-03 4.506815e-02
      vertex -6.200000e-02 -1.250000e-03 4.500000e-02
    endloop
  endfacet
  facet normal -1.305235e-01 0.000000e+00 9.914452e-01
    outer loop
      vertex -6.200000e-02 -1.250000e-03 4.500000e-02
      vertex -6.148236e-02 1.250000e-03 4.506815e-02
      vertex -6.200000e-02 1.250000e-03 4.500000e-02
    endloop
  endfacet
  facet normal -5.493806e-01 8.355722e-01 0.000000e+00
    outer loop
      vertex 1.223997e-01 2.556934e-03 4.356448e-04
      vertex 1.223997e-01 2.556934e-03 1.045644e-01
      vertex 1.234789e-01 3.266514e-03 6.721712e-04
    endloop
  endfacet
  facet normal -5.493806e-01 8.355722e-01 0.000000e+00
    outer loop
      vertex 1.234789e-01 3.266514e-03 6.721712e-04
      vertex 1.223997e-01 2.556934e-03 1.045644e-01
      vertex 1.234789e-01 3.266514e-03 1.043278e-01
    endloop
  endfacet
  facet normal -6.524965e-01 7.577918e-01 0.000000e+00
    outer loop
      vertex 1.234789e-01 3.266514e-03 6.721712e-04
      vertex 1.234789e-01 3.266514e-03 1.043278e-01
      vertex 1.244577e-01 4.109275e-03 9.530917e-04
    endloop
  endfacet
  facet normal -6.524965e-01 7.577918e-01 0.000000e+00
    outer loop
      vertex 1.244577e-01 4.109275e-03 9.530917e-04
      vertex 1.234789e-01 3.266514e-03 1.043278e-01
      vertex 1.244577e-01 4.109275e-03 1.040469e-01
    endloop
  endfacet
  facet normal -7.862688e-01 6.178846e-01 0.000000e+00
    outer loop
      vertex 1.244577e-01 4.109275e-03 9.530917e-04
      vertex 1.244577e-01 4.109275e-03 1.040469e-01
      vertex 1.260505e-01 6.136122e-03 1.033713e-01
    endloop
  endfacet
  facet normal -6.458005e-02 9.979125e-01 0.000000e+00
    outer loop
      vertex 1.187459e-01 1.333411e-03 2.780372e-05
      vertex 1.174570e-01 1.250000e-03 2.775558e-17
      vertex 1.174570e-01 1.250000e-03 1.050000e-01
    endloop
  endfacet
  facet normal -1.926616e-01 9.812652e-01 0.000000e+00
    outer loop
      vertex 1.200133e-01 1.582253e-03 1.107511e-04
      vertex 1.187459e-01 1.333411e-03 2.780372e-05
      vertex 1.187459e-01 1.333411e-03 1.049722e-01
    endloop
  endfacet
  facet normal -6.458005e-02 9.979125e-01 0.000000e+00
    outer loop
      vertex 1.187459e-01 1.333411e-03 1.049722e-01
      vertex 1.187459e-01 1.333411e-03 2.780372e-05
      vertex 1.174570e-01 1.250000e-03 1.050000e-01
    endloop
  endfacet
  facet normal -1.926616e-01 9.812652e-01 0.000000e+00
    outer loop
      vertex 1.187459e-01 1.333411e-03 1.049722e-01
      vertex 1.200133e-01 1.582253e-03 1.048893e-01
      vertex 1.200133e-01 1.582253e-03 1.107511e-04
    endloop
  endfacet
  facet normal -3.175320e-01 9.482476e-01 0.000000e+00
    outer loop
      vertex 1.200133e-01 1.582253e-03 1.107511e-04
      vertex 1.200133e-01 1.582253e-03 1.048893e-01
      vertex 1.212380e-01 1.992375e-03 1.047525e-01
    endloop
  endfacet
  facet normal -3.175320e-01 9.482476e-01 0.000000e+00
    outer loop
      vertex 1.200133e-01 1.582253e-03 1.107511e-04
      vertex 1.212380e-01 1.992375e-03 1.047525e-01
      vertex 1.212380e-01 1.992375e-03 2.474583e-04
    endloop
  endfacet
  facet normal -4.371013e-01 8.994123e-01 0.000000e+00
    outer loop
      vertex 1.212380e-01 1.992375e-03 2.474583e-04
      vertex 1.212380e-01 1.992375e-03 1.047525e-01
      vertex 1.223997e-01 2.556934e-03 1.045644e-01
    endloop
  endfacet
  facet normal -4.371013e-01 8.994123e-01 0.000000e+00
    outer loop
      vertex 1.212380e-01 1.992375e-03 2.474583e-04
      vertex 1.223997e-01 2.556934e-03 1.045644e-01
      vertex 1.223997e-01 2.556934e-03 4.356448e-04
    endloop
  endfacet
  facet normal -7.862688e-01 6.178846e-01 0.000000e+00
    outer loop
      vertex 1.244577e-01 4.109275e-03 9.530917e-04
      vertex 1.260505e-01 6.136122e-03 1.033713e-01
      vertex 1.260505e-01 6.136122e-03 1.628707e-03
    endloop
  endfacet
  facet normal -9.180944e-01 3.963618e-01 0.000000e+00
    outer loop
      vertex 1.260505e-01 6.136122e-03 1.628707e-03
      vertex 1.260505e-01 6.136122e-03 1.033713e-01
      vertex 1.270722e-01 8.502789e-03 1.025824e-01
    endloop
  endfacet
  facet normal -9.180944e-01 3.963618e-01 0.000000e+00
    outer loop
      vertex 1.260505e-01 6.136122e-03 1.628707e-03
      vertex 1.270722e-01 8.502789e-03 1.025824e-01
      vertex 1.270722e-01 8.502789e-03 2.417596e-03
    endloop
  endfacet
  facet normal 6.457815e-02 -9.979126e-01 0.000000e+00
    outer loop
      vertex 1.544288e-01 6.875000e-02 8.250000e-02
      vertex 1.531399e-01 6.866659e-02 8.252780e-02
      vertex 1.531399e-01 6.866659e-02 2.247220e-02
    endloop
  endfacet
  facet normal 1.926638e-01 -9.812648e-01 0.000000e+00
    outer loop
      vertex 1.531399e-01 6.866659e-02 2.247220e-02
      vertex 1.531399e-01 6.866659e-02 8.252780e-02
      vertex 1.518725e-01 6.841775e-02 8.261075e-02
    endloop
  endfacet
  facet normal 1.926638e-01 -9.812648e-01 0.000000e+00
    outer loop
      vertex 1.531399e-01 6.866659e-02 2.247220e-02
      vertex 1.518725e-01 6.841775e-02 8.261075e-02
      vertex 1.518725e-01 6.841775e-02 2.238925e-02
    endloop
  endfacet
  facet normal 3.175323e-01 -9.482474e-01 0.000000e+00
    outer loop
      vertex 1.518725e-01 6.841775e-02 2.238925e-02
      vertex 1.518725e-01 6.841775e-02 8.261075e-02
      vertex 1.506477e-01 6.800763e-02 2.225254e-02
    endloop
  endfacet
  facet normal 6.457815e-02 -9.979126e-01 0.000000e+00
    outer loop
      vertex 1.531399e-01 6.866659e-02 2.247220e-02
      vertex 1.544288e-01 6.875000e-02 2.250000e-02
      vertex 1.544288e-01 6.875000e-02 8.250000e-02
    endloop
  endfacet
  facet normal 3.175323e-01 -9.482474e-01 0.000000e+00
    outer loop
      vertex 1.506477e-01 6.800763e-02 2.225254e-02
      vertex 1.518725e-01 6.841775e-02 8.261075e-02
      vertex 1.506477e-01 6.800763e-02 8.274746e-02
    endloop
  endfacet
  facet normal 6.524951e-01 -7.577929e-01 0.000000e+00
    outer loop
      vertex 1.484068e-01 6.673349e-02 2.182783e-02
      vertex 1.474281e-01 6.589072e-02 8.345309e-02
      vertex 1.474281e-01 6.589072e-02 2.154691e-02
    endloop
  endfacet
  facet normal 7.862680e-01 -6.178856e-01 0.000000e+00
    outer loop
      vertex 1.474281e-01 6.589072e-02 2.154691e-02
      vertex 1.474281e-01 6.589072e-02 8.345309e-02
      vertex 1.458353e-01 6.386388e-02 8.412871e-02
    endloop
  endfacet
  facet normal 7.862680e-01 -6.178856e-01 0.000000e+00
    outer loop
      vertex 1.474281e-01 6.589072e-02 2.154691e-02
      vertex 1.458353e-01 6.386388e-02 8.412871e-02
      vertex 1.458353e-01 6.386388e-02 2.087129e-02
    endloop
  endfacet
  facet normal 9.180946e-01 -3.963614e-01 0.000000e+00
    outer loop
      vertex 1.458353e-01 6.386388e-02 2.087129e-02
      vertex 1.458353e-01 6.386388e-02 8.412871e-02
      vertex 1.448135e-01 6.149721e-02 8.491760e-02
    endloop
  endfacet
  facet normal 9.180946e-01 -3.963614e-01 0.000000e+00
    outer loop
      vertex 1.458353e-01 6.386388e-02 2.087129e-02
      vertex 1.448135e-01 6.149721e-02 8.491760e-02
      vertex 1.448135e-01 6.149721e-02 2.008240e-02
    endloop
  endfacet
  facet normal 4.371018e-01 -8.994120e-01 0.000000e+00
    outer loop
      vertex 1.506477e-01 6.800763e-02 2.225254e-02
      vertex 1.506477e-01 6.800763e-02 8.274746e-02
      vertex 1.494860e-01 6.744307e-02 2.206436e-02
    endloop
  endfacet
  facet normal 4.371018e-01 -8.994120e-01 0.000000e+00
    outer loop
      vertex 1.494860e-01 6.744307e-02 2.206436e-02
      vertex 1.506477e-01 6.800763e-02 8.274746e-02
      vertex 1.494860e-01 6.744307e-02 8.293565e-02
    endloop
  endfacet
  facet normal 5.493827e-01 -8.355708e-01 0.000000e+00
    outer loop
      vertex 1.494860e-01 6.744307e-02 2.206436e-02
      vertex 1.494860e-01 6.744307e-02 8.293565e-02
      vertex 1.484068e-01 6.673349e-02 2.182783e-02
    endloop
  endfacet
  facet normal 5.493827e-01 -8.355708e-01 0.000000e+00
    outer loop
      vertex 1.484068e-01 6.673349e-02 2.182783e-02
      vertex 1.494860e-01 6.744307e-02 8.293565e-02
      vertex 1.484068e-01 6.673349e-02 8.317217e-02
    endloop
  endfacet
  facet normal 6.524951e-01 -7.577929e-01 0.000000e+00
    outer loop
      vertex 1.484068e-01 6.673349e-02 2.182783e-02
      vertex 1.484068e-01 6.673349e-02 8.317217e-02
      vertex 1.474281e-01 6.589072e-02 8.345309e-02
    endloop
  endfacet
  facet normal -5.809259e-01 8.139565e-01 0.000000e+00
    outer loop
      vertex 1.476003e-01 6.994306e-02 8.250000e-02
      vertex 1.476003e-01 6.994306e-02 2.250000e-02
      vertex 1.459286e-01 6.875000e-02 8.250000e-02
    endloop
  endfacet
  facet normal -5.809259e-01 8.139565e-01 0.000000e+00
    outer loop
      vertex 1.459286e-01 6.875000e-02 8.250000e-02
      vertex 1.476003e-01 6.994306e-02 2.250000e-02
      vertex 1.459286e-01 6.875000e-02 2.250000e-02
    endloop
  endfacet
  facet normal -6.809883e-01 7.322943e-01 0.000000e+00
    outer loop
      vertex 1.459286e-01 6.875000e-02 8.250000e-02
      vertex 1.459286e-01 6.875000e-02 2.250000e-02
      vertex 1.455423e-01 6.839073e-02 8.261976e-02
    endloop
  endfacet
  facet normal -6.809883e-01 7.322943e-01 0.000000e+00
    outer loop
      vertex 1.455423e-01 6.839073e-02 8.261976e-02
      vertex 1.459286e-01 6.875000e-02 2.250000e-02
      vertex 1.455423e-01 6.839073e-02 2.238024e-02
    endloop
  endfacet
  facet normal -7.862691e-01 6.178842e-01 0.000000e+00
    outer loop
      vertex 1.455423e-01 6.839073e-02 8.261976e-02
      vertex 1.455423e-01 6.839073e-02 2.238024e-02
      vertex 1.439495e-01 6.636388e-02 2.170463e-02
    endloop
  endfacet
  facet normal -7.862691e-01 6.178842e-01 0.000000e+00
    outer loop
      vertex 1.439495e-01 6.636388e-02 8.329538e-02
      vertex 1.455423e-01 6.839073e-02 8.261976e-02
      vertex 1.439495e-01 6.636388e-02 2.170463e-02
    endloop
  endfacet
  facet normal -9.180967e-01 3.963566e-01 0.000000e+00
    outer loop
      vertex 1.429278e-01 6.399721e-02 8.408426e-02
      vertex 1.439495e-01 6.636388e-02 8.329538e-02
      vertex 1.429278e-01 6.399721e-02 2.091574e-02
    endloop
  endfacet
  facet normal -9.180967e-01 3.963566e-01 0.000000e+00
    outer loop
      vertex 1.429278e-01 6.399721e-02 2.091574e-02
      vertex 1.439495e-01 6.636388e-02 8.329538e-02
      vertex 1.439495e-01 6.636388e-02 2.170463e-02
    endloop
  endfacet
  facet normal -3.781063e-01 9.257622e-01 0.000000e+00
    outer loop
      vertex 1.499867e-01 7.091775e-02 2.250000e-02
      vertex 1.476003e-01 6.994306e-02 2.250000e-02
      vertex 1.499867e-01 7.091775e-02 8.250000e-02
    endloop
  endfacet
  facet normal -3.781063e-01 9.257622e-01 0.000000e+00
    outer loop
      vertex 1.499867e-01 7.091775e-02 8.250000e-02
      vertex 1.476003e-01 6.994306e-02 2.250000e-02
      vertex 1.476003e-01 6.994306e-02 8.250000e-02
    endloop
  endfacet
  facet normal -1.288897e-01 9.916589e-01 0.000000e+00
    outer loop
      vertex 1.525430e-01 7.125000e-02 2.250000e-02
      vertex 1.499867e-01 7.091775e-02 2.250000e-02
      vertex 1.525430e-01 7.125000e-02 8.250000e-02
    endloop
  endfacet
  facet normal -1.288897e-01 9.916589e-01 0.000000e+00
    outer loop
      vertex 1.525430e-01 7.125000e-02 8.250000e-02
      vertex 1.499867e-01 7.091775e-02 2.250000e-02
      vertex 1.499867e-01 7.091775e-02 8.250000e-02
    endloop
  endfacet
  facet normal 1.159961e-06 3.162276e-01 9.486834e-01
    outer loop
      vertex 1.270722e-01 8.502789e-03 1.025824e-01
      vertex 1.260505e-01 6.136122e-03 1.033713e-01
      vertex 1.276000e-01 1.250000e-03 1.050000e-01
    endloop
  endfacet
  facet normal 1.822871e-06 3.162278e-01 9.486833e-01
    outer loop
      vertex 1.276000e-01 1.250000e-03 1.050000e-01
      vertex 1.260505e-01 6.136122e-03 1.033713e-01
      vertex 1.244577e-01 4.109275e-03 1.040469e-01
    endloop
  endfacet
  facet normal -1.016684e-06 3.162250e-01 9.486842e-01
    outer loop
      vertex 1.276000e-01 1.250000e-03 1.050000e-01
      vertex 1.244577e-01 4.109275e-03 1.040469e-01
      vertex 1.234789e-01 3.266514e-03 1.043278e-01
    endloop
  endfacet
  facet normal 0.000000e+00 3.161702e-01 9.487025e-01
    outer loop
      vertex 1.174570e-01 1.250000e-03 1.050000e-01
      vertex 1.276000e-01 1.250000e-03 1.050000e-01
      vertex 1.187459e-01 1.333411e-03 1.049722e-01
    endloop
  endfacet
  facet normal 1.703678e-07 3.162272e-01 9.486835e-01
    outer loop
      vertex 1.276000e-01 1.250000e-03 1.050000e-01
      vertex 1.234789e-01 3.266514e-03 1.043278e-01
      vertex 1.223997e-01 2.556934e-03 1.045644e-01
    endloop
  endfacet
  facet normal 6.461507e-07 3.162276e-01 9.486834e-01
    outer loop
      vertex 1.270722e-01 8.502789e-03 1.025824e-01
      vertex 1.276000e-01 1.250000e-03 1.050000e-01
      vertex 1.429278e-01 6.399721e-02 8.408426e-02
    endloop
  endfacet
  facet normal -6.932933e-08 3.162277e-01 9.486833e-01
    outer loop
      vertex 1.429278e-01 6.399721e-02 8.408426e-02
      vertex 1.276000e-01 1.250000e-03 1.050000e-01
      vertex 1.448135e-01 6.149721e-02 8.491760e-02
    endloop
  endfacet
  facet normal 0.000000e+00 3.162278e-01 9.486833e-01
    outer loop
      vertex 1.429278e-01 6.399721e-02 8.408426e-02
      vertex 1.448135e-01 6.149721e-02 8.491760e-02
      vertex 1.439495e-01 6.636388e-02 8.329538e-02
    endloop
  endfacet
  facet normal 0.000000e+00 3.162278e-01 9.486833e-01
    outer loop
      vertex 1.439495e-01 6.636388e-02 8.329538e-02
      vertex 1.448135e-01 6.149721e-02 8.491760e-02
      vertex 1.458353e-01 6.386388e-02 8.412871e-02
    endloop
  endfacet
  facet normal 7.547562e-07 3.162283e-01 9.486831e-01
    outer loop
      vertex 1.439495e-01 6.636388e-02 8.329538e-02
      vertex 1.458353e-01 6.386388e-02 8.412871e-02
      vertex 1.455423e-01 6.839073e-02 8.261976e-02
    endloop
  endfacet
  facet normal 2.121426e-06 3.162284e-01 9.486831e-01
    outer loop
      vertex 1.455423e-01 6.839073e-02 8.261976e-02
      vertex 1.458353e-01 6.386388e-02 8.412871e-02
      vertex 1.474281e-01 6.589072e-02 8.345309e-02
    endloop
  endfacet
  facet normal -6.653413e-06 3.162224e-01 9.486851e-01
    outer loop
      vertex 1.455423e-01 6.839073e-02 8.261976e-02
      vertex 1.474281e-01 6.589072e-02 8.345309e-02
      vertex 1.459286e-01 6.875000e-02 8.250000e-02
    endloop
  endfacet
  facet normal -1.850347e-06 3.162247e-01 9.486843e-01
    outer loop
      vertex 1.459286e-01 6.875000e-02 8.250000e-02
      vertex 1.474281e-01 6.589072e-02 8.345309e-02
      vertex 1.484068e-01 6.673349e-02 8.317217e-02
    endloop
  endfacet
  facet normal 3.103895e-07 3.162277e-01 9.486833e-01
    outer loop
      vertex 1.223997e-01 2.556934e-03 1.045644e-01
      vertex 1.212380e-01 1.992375e-03 1.047525e-01
      vertex 1.276000e-01 1.250000e-03 1.050000e-01
    endloop
  endfacet
  facet normal 9.316184e-07 3.162324e-01 9.486817e-01
    outer loop
      vertex 1.276000e-01 1.250000e-03 1.050000e-01
      vertex 1.212380e-01 1.992375e-03 1.047525e-01
      vertex 1.200133e-01 1.582253e-03 1.048893e-01
    endloop
  endfacet
  facet normal 5.752782e-07 3.162251e-01 9.486842e-01
    outer loop
      vertex 1.276000e-01 1.250000e-03 1.050000e-01
      vertex 1.200133e-01 1.582253e-03 1.048893e-01
      vertex 1.187459e-01 1.333411e-03 1.049722e-01
    endloop
  endfacet
  facet normal 4.248902e-07 3.162272e-01 9.486835e-01
    outer loop
      vertex 1.484068e-01 6.673349e-02 8.317217e-02
      vertex 1.494860e-01 6.744307e-02 8.293565e-02
      vertex 1.459286e-01 6.875000e-02 8.250000e-02
    endloop
  endfacet
  facet normal 3.771755e-07 3.162271e-01 9.486836e-01
    outer loop
      vertex 1.459286e-01 6.875000e-02 8.250000e-02
      vertex 1.494860e-01 6.744307e-02 8.293565e-02
      vertex 1.506477e-01 6.800763e-02 8.274746e-02
    endloop
  endfacet
  facet normal 9.545607e-07 3.162304e-01 9.486824e-01
    outer loop
      vertex 1.459286e-01 6.875000e-02 8.250000e-02
      vertex 1.506477e-01 6.800763e-02 8.274746e-02
      vertex 1.518725e-01 6.841775e-02 8.261075e-02
    endloop
  endfacet
  facet normal -0.000000e+00 3.161769e-01 9.487002e-01
    outer loop
      vertex 1.544288e-01 6.875000e-02 8.250000e-02
      vertex 1.459286e-01 6.875000e-02 8.250000e-02
      vertex 1.531399e-01 6.866659e-02 8.252780e-02
    endloop
  endfacet
  facet normal 6.170956e-07 3.162249e-01 9.486842e-01
    outer loop
      vertex 1.531399e-01 6.866659e-02 8.252780e-02
      vertex 1.459286e-01 6.875000e-02 8.250000e-02
      vertex 1.518725e-01 6.841775e-02 8.261075e-02
    endloop
  endfacet
  facet normal -0.000000e+00 0.000000e+00 1.000000e+00
    outer loop
      vertex 2.000000e-01 7.125000e-02 8.250000e-02
      vertex 1.525430e-01 7.125000e-02 8.250000e-02
      vertex 1.544288e-01 6.875000e-02 8.250000e-02
    endloop
  endfacet
  facet normal 0.000000e+00 0.000000e+00 1.000000e+00
    outer loop
      vertex 1.544288e-01 6.875000e-02 8.250000e-02
      vertex 1.525430e-01 7.125000e-02 8.250000e-02
      vertex 1.499867e-01 7.091775e-02 8.250000e-02
    endloop
  endfacet
  facet normal 0.000000e+00 0.000000e+00 1.000000e+00
    outer loop
      vertex 1.544288e-01 6.875000e-02 8.250000e-02
      vertex 1.499867e-01 7.091775e-02 8.250000e-02
      vertex 1.476003e-01 6.994306e-02 8.250000e-02
    endloop
  endfacet
  facet normal 0.000000e+00 0.000000e+00 1.000000e+00
    outer loop
      vertex 1.459286e-01 6.875000e-02 8.250000e-02
      vertex 1.544288e-01 6.875000e-02 8.250000e-02
      vertex 1.476003e-01 6.994306e-02 8.250000e-02
    endloop
  endfacet
  facet normal 0.000000e+00 -0.000000e+00 1.000000e+00
    outer loop
      vertex 1.544288e-01 6.875000e-02 8.250000e-02
      vertex 2.000000e-01 6.875000e-02 8.250000e-02
      vertex 2.000000e-01 7.125000e-02 8.250000e-02
    endloop
  endfacet
  facet normal -4.716497e-09 3.162278e-01 -9.486833e-01
    outer loop
      vertex 1.223997e-01 2.556934e-03 4.356448e-04
      vertex 1.234789e-01 3.266514e-03 6.721712e-04
      vertex 1.276000e-01 1.250000e-03 2.114194e-18
    endloop
  endfacet
  facet normal 1.647724e-08 3.162278e-01 -9.486833e-01
    outer loop
      vertex 1.276000e-01 1.250000e-03 2.114194e-18
      vertex 1.234789e-01 3.266514e-03 6.721712e-04
      vertex 1.244577e-01 4.109275e-03 9.530917e-04
    endloop
  endfacet
  facet normal 1.402733e-09 3.162278e-01 -9.486833e-01
    outer loop
      vertex 1.276000e-01 1.250000e-03 2.114194e-18
      vertex 1.244577e-01 4.109275e-03 9.530917e-04
      vertex 1.260505e-01 6.136122e-03 1.628707e-03
    endloop
  endfacet
  facet normal 4.157637e-16 3.162276e-01 -9.486834e-01
    outer loop
      vertex 1.276000e-01 1.250000e-03 2.114194e-18
      vertex 1.174570e-01 1.250000e-03 -2.331035e-18
      vertex 1.187459e-01 1.333411e-03 2.780372e-05
    endloop
  endfacet
  facet normal 0.000000e+00 3.162341e-01 -9.486812e-01
    outer loop
      vertex 1.459286e-01 6.875000e-02 2.250000e-02
      vertex 1.544288e-01 6.875000e-02 2.250000e-02
      vertex 1.531399e-01 6.866659e-02 2.247220e-02
    endloop
  endfacet
  facet normal -3.083295e-08 3.162278e-01 -9.486833e-01
    outer loop
      vertex 1.276000e-01 1.250000e-03 2.114194e-18
      vertex 1.260505e-01 6.136122e-03 1.628707e-03
      vertex 1.270722e-01 8.502789e-03 2.417596e-03
    endloop
  endfacet
  facet normal -3.749913e-08 3.162278e-01 -9.486833e-01
    outer loop
      vertex 1.276000e-01 1.250000e-03 2.114194e-18
      vertex 1.270722e-01 8.502789e-03 2.417596e-03
      vertex 1.448135e-01 6.149721e-02 2.008240e-02
    endloop
  endfacet
  facet normal -6.630472e-07 3.162279e-01 -9.486833e-01
    outer loop
      vertex 1.448135e-01 6.149721e-02 2.008240e-02
      vertex 1.270722e-01 8.502789e-03 2.417596e-03
      vertex 1.429278e-01 6.399721e-02 2.091574e-02
    endloop
  endfacet
  facet normal -5.959640e-07 3.162280e-01 -9.486832e-01
    outer loop
      vertex 1.448135e-01 6.149721e-02 2.008240e-02
      vertex 1.429278e-01 6.399721e-02 2.091574e-02
      vertex 1.458353e-01 6.386388e-02 2.087129e-02
    endloop
  endfacet
  facet normal -6.295384e-07 3.162273e-01 -9.486834e-01
    outer loop
      vertex 1.458353e-01 6.386388e-02 2.087129e-02
      vertex 1.429278e-01 6.399721e-02 2.091574e-02
      vertex 1.439495e-01 6.636388e-02 2.170463e-02
    endloop
  endfacet
  facet normal 3.773788e-07 3.162280e-01 -9.486832e-01
    outer loop
      vertex 1.458353e-01 6.386388e-02 2.087129e-02
      vertex 1.439495e-01 6.636388e-02 2.170463e-02
      vertex 1.474281e-01 6.589072e-02 2.154691e-02
    endloop
  endfacet
  facet normal 3.416669e-07 3.162278e-01 -9.486833e-01
    outer loop
      vertex 1.474281e-01 6.589072e-02 2.154691e-02
      vertex 1.439495e-01 6.636388e-02 2.170463e-02
      vertex 1.455423e-01 6.839073e-02 2.238024e-02
    endloop
  endfacet
  facet normal -6.066887e-07 3.162271e-01 -9.486835e-01
    outer loop
      vertex 1.474281e-01 6.589072e-02 2.154691e-02
      vertex 1.455423e-01 6.839073e-02 2.238024e-02
      vertex 1.484068e-01 6.673349e-02 2.182783e-02
    endloop
  endfacet
  facet normal 4.579620e-07 3.162288e-01 -9.486830e-01
    outer loop
      vertex 1.484068e-01 6.673349e-02 2.182783e-02
      vertex 1.455423e-01 6.839073e-02 2.238024e-02
      vertex 1.459286e-01 6.875000e-02 2.250000e-02
    endloop
  endfacet
  facet normal 6.931597e-07 3.162290e-01 -9.486828e-01
    outer loop
      vertex 1.484068e-01 6.673349e-02 2.182783e-02
      vertex 1.459286e-01 6.875000e-02 2.250000e-02
      vertex 1.494860e-01 6.744307e-02 2.206436e-02
    endloop
  endfacet
  facet normal 2.980428e-09 3.162279e-01 -9.486833e-01
    outer loop
      vertex 1.187459e-01 1.333411e-03 2.780372e-05
      vertex 1.200133e-01 1.582253e-03 1.107511e-04
      vertex 1.276000e-01 1.250000e-03 2.114194e-18
    endloop
  endfacet
  facet normal -5.316466e-09 3.162277e-01 -9.486833e-01
    outer loop
      vertex 1.276000e-01 1.250000e-03 2.114194e-18
      vertex 1.200133e-01 1.582253e-03 1.107511e-04
      vertex 1.212380e-01 1.992375e-03 2.474583e-04
    endloop
  endfacet
  facet normal 1.350240e-08 3.162278e-01 -9.486833e-01
    outer loop
      vertex 1.276000e-01 1.250000e-03 2.114194e-18
      vertex 1.212380e-01 1.992375e-03 2.474583e-04
      vertex 1.223997e-01 2.556934e-03 4.356448e-04
    endloop
  endfacet
  facet normal 4.295765e-10 3.162341e-01 -9.486812e-01
    outer loop
      vertex 1.531399e-01 6.866659e-02 2.247220e-02
      vertex 1.518725e-01 6.841775e-02 2.238925e-02
      vertex 1.459286e-01 6.875000e-02 2.250000e-02
    endloop
  endfacet
  facet normal -4.772810e-07 3.162265e-01 -9.486837e-01
    outer loop
      vertex 1.459286e-01 6.875000e-02 2.250000e-02
      vertex 1.518725e-01 6.841775e-02 2.238925e-02
      vertex 1.506477e-01 6.800763e-02 2.225254e-02
    endloop
  endfacet
  facet normal -5.605668e-07 3.162260e-01 -9.486839e-01
    outer loop
      vertex 1.459286e-01 6.875000e-02 2.250000e-02
      vertex 1.506477e-01 6.800763e-02 2.225254e-02
      vertex 1.494860e-01 6.744307e-02 2.206436e-02
    endloop
  endfacet
  facet normal 0.000000e+00 -0.000000e+00 -1.000000e+00
    outer loop
      vertex 1.459286e-01 6.875000e-02 2.250000e-02
      vertex 1.476003e-01 6.994306e-02 2.250000e-02
      vertex 1.544288e-01 6.875000e-02 2.250000e-02
    endloop
  endfacet
  facet normal 0.000000e+00 0.000000e+00 -1.000000e+00
    outer loop
      vertex 1.544288e-01 6.875000e-02 2.250000e-02
      vertex 1.476003e-01 6.994306e-02 2.250000e-02
      vertex 1.499867e-01 7.091775e-02 2.250000e-02
    endloop
  endfacet
  facet normal 0.000000e+00 0.000000e+00 -1.000000e+00
    outer loop
      vertex 1.544288e-01 6.875000e-02 2.250000e-02
      vertex 1.499867e-01 7.091775e-02 2.250000e-02
      vertex 1.525430e-01 7.125000e-02 2.250000e-02
    endloop
  endfacet
  facet normal 0.000000e+00 0.000000e+00 -1.000000e+00
    outer loop
      vertex 1.544288e-01 6.875000e-02 2.250000e-02
      vertex 1.525430e-01 7.125000e-02 2.250000e-02
      vertex 2.000000e-01 6.875000e-02 2.250000e-02
    endloop
  endfacet
  facet normal 0.000000e+00 0.000000e+00 -1.000000e+00
    outer loop
      vertex 2.000000e-01 6.875000e-02 2.250000e-02
      vertex 1.525430e-01 7.125000e-02 2.250000e-02
      vertex 2.000000e-01 7.125000e-02 2.250000e-02
    endloop
  endfacet
  facet normal -0.000000e+00 0.000000e+00 -1.000000e+00
    outer loop
      vertex -1.250000e-01 1.250000e-03 6.000000e-02
      vertex -6.200000e-02 1.250000e-03 6.000000e-02
      vertex -1.250000e-01 -1.250000e-03 6.000000e-02
    endloop
  endfacet
  facet normal 0.000000e+00 -0.000000e+00 -1.000000e+00
    outer loop
      vertex -1.250000e-01 -1.250000e-03 6.000000e-02
      vertex -6.200000e-02 1.250000e-03 6.000000e-02
      vertex -6.200000e-02 -1.250000e-03 6.000000e-02
    endloop
  endfacet
  facet normal -1.000000e+00 0.000000e+00 0.000000e+00
    outer loop
      vertex -6.000000e-02 1.250000e-03 5.800000e-02
      vertex -6.000000e-02 1.250000e-03 4.700000e-02
      vertex -6.000000e-02 -1.250000e-03 5.800000e-02
    endloop
  endfacet
  facet normal -1.000000e+00 0.000000e+00 0.000000e+00
    outer loop
      vertex -6.000000e-02 -1.250000e-03 5.800000e-02
      vertex -6.000000e-02 1.250000e-03 4.700000e-02
      vertex -6.000000e-02 -1.250000e-03 4.700000e-02
    endloop
  endfacet
  facet normal 0.000000e+00 0.000000e+00 1.000000e+00
    outer loop
      vertex -1.250000e-01 -1.250000e-03 4.500000e-02
      vertex -6.200000e-02 -1.250000e-03 4.500000e-02
      vertex -1.250000e-01 1.250000e-03 4.500000e-02
    endloop
  endfacet
  facet normal 0.000000e+00 -0.000000e+00 1.000000e+00
    outer loop
      vertex -1.250000e-01 1.250000e-03 4.500000e-02
      vertex -6.200000e-02 -1.250000e-03 4.500000e-02
      vertex -6.200000e-02 1.250000e-03 4.500000e-02
    endloop
  endfacet
  facet normal 0.000000e+00 1.000000e+00 0.000000e+00
    outer loop
      vertex -1.246593e-01 1.250000e-03 9.758819e-02
      vertex -6.148236e-02 1.250000e-03 5.993185e-02
      vertex -1.250000e-01 1.250000e-03 9.500000e-02
    endloop
  endfacet
  facet normal 0.000000e+00 1.000000e+00 0.000000e+00
    outer loop
      vertex -1.250000e-01 1.250000e-03 9.500000e-02
      vertex -6.148236e-02 1.250000e-03 5.993185e-02
      vertex -6.200000e-02 1.250000e-03 6.000000e-02
    endloop
  endfacet
  facet normal 0.000000e+00 1.000000e+00 0.000000e+00
    outer loop
      vertex -1.250000e-01 1.250000e-03 9.500000e-02
      vertex -6.200000e-02 1.250000e-03 6.000000e-02
      vertex -1.250000e-01 1.250000e-03 6.000000e-02
    endloop
  endfacet
  facet normal 0.000000e+00 1.000000e+00 -0.000000e+00
    outer loop
      vertex -6.200000e-02 1.250000e-03 4.500000e-02
      vertex -1.236603e-01 1.250000e-03 5.000000e-03
      vertex -1.246593e-01 1.250000e-03 7.411810e-03
    endloop
  endfacet
  facet normal 0.000000e+00 1.000000e+00 -0.000000e+00
    outer loop
      vertex 1.174570e-01 1.250000e-03 1.050000e-01
      vertex 1.174570e-01 1.250000e-03 2.775558e-17
      vertex -6.058579e-02 1.250000e-03 4.558579e-02
    endloop
  endfacet
  facet normal 0.000000e+00 1.000000e+00 0.000000e+00
    outer loop
      vertex 1.174570e-01 1.250000e-03 1.050000e-01
      vertex -6.000000e-02 1.250000e-03 4.700000e-02
      vertex -6.000000e-02 1.250000e-03 5.800000e-02
    endloop
  endfacet
  facet normal -0.000000e+00 1.000000e+00 0.000000e+00
    outer loop
      vertex -6.148236e-02 1.250000e-03 5.993185e-02
      vertex -1.246593e-01 1.250000e-03 9.758819e-02
      vertex -1.236603e-01 1.250000e-03 1.000000e-01
    endloop
  endfacet
  facet normal 0.000000e+00 1.000000e+00 0.000000e+00
    outer loop
      vertex -1.175882e-01 1.250000e-03 3.407417e-04
      vertex -6.200000e-02 1.250000e-03 4.500000e-02
      vertex -1.150000e-01 1.250000e-03 0.000000e+00
    endloop
  endfacet
  facet normal 0.000000e+00 1.000000e+00 0.000000e+00
    outer loop
      vertex -1.150000e-01 1.250000e-03 0.000000e+00
      vertex -6.200000e-02 1.250000e-03 4.500000e-02
      vertex 1.174570e-01 1.250000e-03 2.775558e-17
    endloop
  endfacet
  facet normal -0.000000e+00 1.000000e+00 0.000000e+00
    outer loop
      vertex -1.175882e-01 1.250000e-03 3.407417e-04
      vertex -1.200000e-01 1.250000e-03 1.339746e-03
      vertex -6.200000e-02 1.250000e-03 4.500000e-02
    endloop
  endfacet
  facet normal 0.000000e+00 1.000000e+00 -0.000000e+00
    outer loop
      vertex -6.200000e-02 1.250000e-03 4.500000e-02
      vertex -1.200000e-01 1.250000e-03 1.339746e-03
      vertex -1.220711e-01 1.250000e-03 2.928932e-03
    endloop
  endfacet
  facet normal 0.000000e+00 1.000000e+00 -0.000000e+00
    outer loop
      vertex -6.200000e-02 1.250000e-03 4.500000e-02
      vertex -1.220711e-01 1.250000e-03 2.928932e-03
      vertex -1.236603e-01 1.250000e-03 5.000000e-03
    endloop
  endfacet
  facet normal -0.000000e+00 1.000000e+00 0.000000e+00
    outer loop
      vertex -6.058579e-02 1.250000e-03 4.558579e-02
      vertex -6.026795e-02 1.250000e-03 4.600000e-02
      vertex 1.174570e-01 1.250000e-03 1.050000e-01
    endloop
  endfacet
  facet normal 0.000000e+00 1.000000e+00 0.000000e+00
    outer loop
      vertex 1.174570e-01 1.250000e-03 1.050000e-01
      vertex -6.026795e-02 1.250000e-03 4.600000e-02
      vertex -6.006815e-02 1.250000e-03 4.648236e-02
    endloop
  endfacet
  facet normal 0.000000e+00 1.000000e+00 0.000000e+00
    outer loop
      vertex 1.174570e-01 1.250000e-03 1.050000e-01
      vertex -6.006815e-02 1.250000e-03 4.648236e-02
      vertex -6.000000e-02 1.250000e-03 4.700000e-02
    endloop
  endfacet
  facet normal 0.000000e+00 1.000000e+00 0.000000e+00
    outer loop
      vertex -1.250000e-01 1.250000e-03 4.500000e-02
      vertex -6.200000e-02 1.250000e-03 4.500000e-02
      vertex -1.250000e-01 1.250000e-03 1.000000e-02
    endloop
  endfacet
  facet normal 0.000000e+00 1.000000e+00 0.000000e+00
    outer loop
      vertex -1.250000e-01 1.250000e-03 1.000000e-02
      vertex -6.200000e-02 1.250000e-03 4.500000e-02
      vertex -1.246593e-01 1.250000e-03 7.411810e-03
    endloop
  endfacet
  facet normal 0.000000e+00 1.000000e+00 0.000000e+00
    outer loop
      vertex -1.236603e-01 1.250000e-03 1.000000e-01
      vertex -1.220711e-01 1.250000e-03 1.020711e-01
      vertex -6.148236e-02 1.250000e-03 5.993185e-02
    endloop
  endfacet
  facet normal -0.000000e+00 1.000000e+00 0.000000e+00
    outer loop
      vertex -6.148236e-02 1.250000e-03 5.993185e-02
      vertex -1.220711e-01 1.250000e-03 1.020711e-01
      vertex -1.200000e-01 1.250000e-03 1.036603e-01
    endloop
  endfacet
  facet normal -0.000000e+00 1.000000e+00 0.000000e+00
    outer loop
      vertex -6.148236e-02 1.250000e-03 5.993185e-02
      vertex -1.200000e-01 1.250000e-03 1.036603e-01
      vertex -1.175882e-01 1.250000e-03 1.046593e-01
    endloop
  endfacet
  facet normal 0.000000e+00 1.000000e+00 0.000000e+00
    outer loop
      vertex -6.200000e-02 1.250000e-03 4.500000e-02
      vertex -6.148236e-02 1.250000e-03 4.506815e-02
      vertex 1.174570e-01 1.250000e-03 2.775558e-17
    endloop
  endfacet
  facet normal -0.000000e+00 1.000000e+00 0.000000e+00
    outer loop
      vertex 1.174570e-01 1.250000e-03 2.775558e-17
      vertex -6.148236e-02 1.250000e-03 4.506815e-02
      vertex -6.100000e-02 1.250000e-03 4.526795e-02
    endloop
  endfacet
  facet normal -0.000000e+00 1.000000e+00 0.000000e+00
    outer loop
      vertex 1.174570e-01 1.250000e-03 2.775558e-17
      vertex -6.100000e-02 1.250000e-03 4.526795e-02
      vertex -6.058579e-02 1.250000e-03 4.558579e-02
    endloop
  endfacet
  facet normal 0.000000e+00 1.000000e+00 0.000000e+00
    outer loop
      vertex -1.175882e-01 1.250000e-03 1.046593e-01
      vertex -1.150000e-01 1.250000e-03 1.050000e-01
      vertex -6.148236e-02 1.250000e-03 5.993185e-02
    endloop
  endfacet
  facet normal -0.000000e+00 1.000000e+00 0.000000e+00
    outer loop
      vertex -6.148236e-02 1.250000e-03 5.993185e-02
      vertex -1.150000e-01 1.250000e-03 1.050000e-01
      vertex 1.174570e-01 1.250000e-03 1.050000e-01
    endloop
  endfacet
  facet normal 0.000000e+00 1.000000e+00 0.000000e+00
    outer loop
      vertex -6.148236e-02 1.250000e-03 5.993185e-02
      vertex 1.174570e-01 1.250000e-03 1.050000e-01
      vertex -6.100000e-02 1.250000e-03 5.973205e-02
    endloop
  endfacet
  facet normal 0.000000e+00 1.000000e+00 0.000000e+00
    outer loop
      vertex -6.100000e-02 1.250000e-03 5.973205e-02
      vertex 1.174570e-01 1.250000e-03 1.050000e-01
      vertex -6.058579e-02 1.250000e-03 5.941422e-02
    endloop
  endfacet
  facet normal -0.000000e+00 1.000000e+00 0.000000e+00
    outer loop
      vertex -6.000000e-02 1.250000e-03 5.800000e-02
      vertex -6.006815e-02 1.250000e-03 5.851764e-02
      vertex 1.174570e-01 1.250000e-03 1.050000e-01
    endloop
  endfacet
  facet normal 0.000000e+00 1.000000e+00 -0.000000e+00
    outer loop
      vertex 1.174570e-01 1.250000e-03 1.050000e-01
      vertex -6.006815e-02 1.250000e-03 5.851764e-02
      vertex -6.026795e-02 1.250000e-03 5.900000e-02
    endloop
  endfacet
  facet normal 0.000000e+00 1.000000e+00 -0.000000e+00
    outer loop
      vertex 1.174570e-01 1.250000e-03 1.050000e-01
      vertex -6.026795e-02 1.250000e-03 5.900000e-02
      vertex -6.058579e-02 1.250000e-03 5.941422e-02
    endloop
  endfacet
  facet normal 0.000000e+00 -1.000000e+00 0.000000e+00
    outer loop
      vertex -6.058579e-02 -1.250000e-03 5.941422e-02
      vertex -6.026795e-02 -1.250000e-03 5.900000e-02
      vertex 1.268858e-01 -1.250000e-03 0.000000e+00
    endloop
  endfacet
  facet normal 0.000000e+00 -1.000000e+00 0.000000e+00
    outer loop
      vertex 1.268858e-01 -1.250000e-03 0.000000e+00
      vertex -6.026795e-02 -1.250000e-03 5.900000e-02
      vertex -6.006815e-02 -1.250000e-03 5.851764e-02
    endloop
  endfacet
  facet normal 0.000000e+00 -1.000000e+00 0.000000e+00
    outer loop
      vertex 1.268858e-01 -1.250000e-03 0.000000e+00
      vertex -6.006815e-02 -1.250000e-03 5.851764e-02
      vertex -6.000000e-02 -1.250000e-03 5.800000e-02
    endloop
  endfacet
  facet normal 0.000000e+00 -1.000000e+00 0.000000e+00
    outer loop
      vertex -1.250000e-01 -1.250000e-03 1.000000e-02
      vertex -6.100000e-02 -1.250000e-03 4.526795e-02
      vertex -6.148236e-02 -1.250000e-03 4.506815e-02
    endloop
  endfacet
  facet normal 0.000000e+00 -1.000000e+00 0.000000e+00
    outer loop
      vertex 1.268858e-01 -1.250000e-03 0.000000e+00
      vertex -6.000000e-02 -1.250000e-03 5.800000e-02
      vertex -6.000000e-02 -1.250000e-03 4.700000e-02
    endloop
  endfacet
  facet normal 0.000000e+00 -1.000000e+00 0.000000e+00
    outer loop
      vertex -1.150000e-01 -1.250000e-03 0.000000e+00
      vertex 1.268858e-01 -1.250000e-03 0.000000e+00
      vertex -6.100000e-02 -1.250000e-03 4.526795e-02
    endloop
  endfacet
  facet normal 0.000000e+00 -1.000000e+00 0.000000e+00
    outer loop
      vertex -6.100000e-02 -1.250000e-03 4.526795e-02
      vertex 1.268858e-01 -1.250000e-03 0.000000e+00
      vertex -6.058579e-02 -1.250000e-03 4.558579e-02
    endloop
  endfacet
  facet normal 0.000000e+00 -1.000000e+00 0.000000e+00
    outer loop
      vertex -1.250000e-01 -1.250000e-03 6.000000e-02
      vertex -6.200000e-02 -1.250000e-03 6.000000e-02
      vertex -1.250000e-01 -1.250000e-03 9.500000e-02
    endloop
  endfacet
  facet normal 0.000000e+00 -1.000000e+00 0.000000e+00
    outer loop
      vertex -1.250000e-01 -1.250000e-03 9.500000e-02
      vertex -6.200000e-02 -1.250000e-03 6.000000e-02
      vertex -1.246593e-01 -1.250000e-03 9.758819e-02
    endloop
  endfacet
  facet normal 0.000000e+00 -1.000000e+00 0.000000e+00
    outer loop
      vertex 1.268858e-01 -1.250000e-03 1.050000e-01
      vertex -1.150000e-01 -1.250000e-03 1.050000e-01
      vertex -6.200000e-02 -1.250000e-03 6.000000e-02
    endloop
  endfacet
  facet normal 0.000000e+00 -1.000000e+00 -0.000000e+00
    outer loop
      vertex -6.200000e-02 -1.250000e-03 6.000000e-02
      vertex -1.150000e-01 -1.250000e-03 1.050000e-01
      vertex -1.175882e-01 -1.250000e-03 1.046593e-01
    endloop
  endfacet
  facet normal 0.000000e+00 -1.000000e+00 -0.000000e+00
    outer loop
      vertex -6.200000e-02 -1.250000e-03 6.000000e-02
      vertex -1.175882e-01 -1.250000e-03 1.046593e-01
      vertex -1.200000e-01 -1.250000e-03 1.036603e-01
    endloop
  endfacet
  facet normal 0.000000e+00 -1.000000e+00 0.000000e+00
    outer loop
      vertex -1.250000e-01 -1.250000e-03 1.000000e-02
      vertex -1.246593e-01 -1.250000e-03 7.411810e-03
      vertex -6.100000e-02 -1.250000e-03 4.526795e-02
    endloop
  endfacet
  facet normal 0.000000e+00 -1.000000e+00 0.000000e+00
    outer loop
      vertex -6.100000e-02 -1.250000e-03 4.526795e-02
      vertex -1.246593e-01 -1.250000e-03 7.411810e-03
      vertex -1.236603e-01 -1.250000e-03 5.000000e-03
    endloop
  endfacet
  facet normal 0.000000e+00 -1.000000e+00 0.000000e+00
    outer loop
      vertex -6.100000e-02 -1.250000e-03 4.526795e-02
      vertex -1.236603e-01 -1.250000e-03 5.000000e-03
      vertex -1.220711e-01 -1.250000e-03 2.928932e-03
    endloop
  endfacet
  facet normal 0.000000e+00 -1.000000e+00 0.000000e+00
    outer loop
      vertex -6.000000e-02 -1.250000e-03 4.700000e-02
      vertex -6.006815e-02 -1.250000e-03 4.648236e-02
      vertex 1.268858e-01 -1.250000e-03 0.000000e+00
    endloop
  endfacet
  facet normal 0.000000e+00 -1.000000e+00 -0.000000e+00
    outer loop
      vertex 1.268858e-01 -1.250000e-03 0.000000e+00
      vertex -6.006815e-02 -1.250000e-03 4.648236e-02
      vertex -6.026795e-02 -1.250000e-03 4.600000e-02
    endloop
  endfacet
  facet normal 0.000000e+00 -1.000000e+00 -0.000000e+00
    outer loop
      vertex 1.268858e-01 -1.250000e-03 0.000000e+00
      vertex -6.026795e-02 -1.250000e-03 4.600000e-02
      vertex -6.058579e-02 -1.250000e-03 4.558579e-02
    endloop
  endfacet
  facet normal 0.000000e+00 -1.000000e+00 0.000000e+00
    outer loop
      vertex -1.220711e-01 -1.250000e-03 2.928932e-03
      vertex -1.200000e-01 -1.250000e-03 1.339746e-03
      vertex -6.100000e-02 -1.250000e-03 4.526795e-02
    endloop
  endfacet
  facet normal 0.000000e+00 -1.000000e+00 0.000000e+00
    outer loop
      vertex -6.100000e-02 -1.250000e-03 4.526795e-02
      vertex -1.200000e-01 -1.250000e-03 1.339746e-03
      vertex -1.175882e-01 -1.250000e-03 3.407417e-04
    endloop
  endfacet
  facet normal 0.000000e+00 -1.000000e+00 0.000000e+00
    outer loop
      vertex -6.100000e-02 -1.250000e-03 4.526795e-02
      vertex -1.175882e-01 -1.250000e-03 3.407417e-04
      vertex -1.150000e-01 -1.250000e-03 0.000000e+00
    endloop
  endfacet
  facet normal 0.000000e+00 -1.000000e+00 0.000000e+00
    outer loop
      vertex -1.250000e-01 -1.250000e-03 4.500000e-02
      vertex -1.250000e-01 -1.250000e-03 1.000000e-02
      vertex -6.200000e-02 -1.250000e-03 4.500000e-02
    endloop
  endfacet
  facet normal 0.000000e+00 -1.000000e+00 0.000000e+00
    outer loop
      vertex -6.200000e-02 -1.250000e-03 4.500000e-02
      vertex -1.250000e-01 -1.250000e-03 1.000000e-02
      vertex -6.148236e-02 -1.250000e-03 4.506815e-02
    endloop
  endfacet
  facet normal 0.000000e+00 -1.000000e+00 0.000000e+00
    outer loop
      vertex -6.058579e-02 -1.250000e-03 5.941422e-02
      vertex 1.268858e-01 -1.250000e-03 0.000000e+00
      vertex -6.100000e-02 -1.250000e-03 5.973205e-02
    endloop
  endfacet
  facet normal 0.000000e+00 -1.000000e+00 0.000000e+00
    outer loop
      vertex -6.100000e-02 -1.250000e-03 5.973205e-02
      vertex 1.268858e-01 -1.250000e-03 0.000000e+00
      vertex 1.268858e-01 -1.250000e-03 1.050000e-01
    endloop
  endfacet
  facet normal 0.000000e+00 -1.000000e+00 0.000000e+00
    outer loop
      vertex -6.100000e-02 -1.250000e-03 5.973205e-02
      vertex 1.268858e-01 -1.250000e-03 1.050000e-01
      vertex -6.148236e-02 -1.250000e-03 5.993185e-02
    endloop
  endfacet
  facet normal 0.000000e+00 -1.000000e+00 0.000000e+00
    outer loop
      vertex -6.148236e-02 -1.250000e-03 5.993185e-02
      vertex 1.268858e-01 -1.250000e-03 1.050000e-01
      vertex -6.200000e-02 -1.250000e-03 6.000000e-02
    endloop
  endfacet
  facet normal 0.000000e+00 -1.000000e+00 0.000000e+00
    outer loop
      vertex -1.200000e-01 -1.250000e-03 1.036603e-01
      vertex -1.220711e-01 -1.250000e-03 1.020711e-01
      vertex -6.200000e-02 -1.250000e-03 6.000000e-02
    endloop
  endfacet
  facet normal 0.000000e+00 -1.000000e+00 -0.000000e+00
    outer loop
      vertex -6.200000e-02 -1.250000e-03 6.000000e-02
      vertex -1.220711e-01 -1.250000e-03 1.020711e-01
      vertex -1.236603e-01 -1.250000e-03 1.000000e-01
    endloop
  endfacet
  facet normal 0.000000e+00 -1.000000e+00 -0.000000e+00
    outer loop
      vertex -6.200000e-02 -1.250000e-03 6.000000e-02
      vertex -1.236603e-01 -1.250000e-03 1.000000e-01
      vertex -1.246593e-01 -1.250000e-03 9.758819e-02
    endloop
  endfacet
  facet normal -1.000000e+00 0.000000e+00 0.000000e+00
    outer loop
      vertex -1.250000e-01 -1.250000e-03 6.000000e-02
      vertex -1.250000e-01 -1.250000e-03 9.500000e-02
      vertex -1.250000e-01 1.250000e-03 6.000000e-02
    endloop
  endfacet
  facet normal -1.000000e+00 0.000000e+00 0.000000e+00
    outer loop
      vertex -1.250000e-01 1.250000e-03 6.000000e-02
      vertex -1.250000e-01 -1.250000e-03 9.500000e-02
      vertex -1.250000e-01 1.250000e-03 9.500000e-02
    endloop
  endfacet
  facet normal -1.000000e+00 0.000000e+00 0.000000e+00
    outer loop
      vertex -1.250000e-01 1.250000e-03 4.500000e-02
      vertex -1.250000e-01 1.250000e-03 1.000000e-02
      vertex -1.250000e-01 -1.250000e-03 4.500000e-02
    endloop
  endfacet
  facet normal -1.000000e+00 0.000000e+00 0.000000e+00
    outer loop
      vertex -1.250000e-01 -1.250000e-03 4.500000e-02
      vertex -1.250000e-01 1.250000e-03 1.000000e-02
      vertex -1.250000e-01 -1.250000e-03 1.000000e-02
    endloop
  endfacet
  facet normal 0.000000e+00 0.000000e+00 -1.000000e+00
    outer loop
      vertex 1.276000e-01 1.250000e-03 0.000000e+00
      vertex 1.268858e-01 -1.250000e-03 0.000000e+00
      vertex 1.174570e-01 1.250000e-03 0.000000e+00
    endloop
  endfacet
  facet normal 0.000000e+00 0.000000e+00 -1.000000e+00
    outer loop
      vertex 1.174570e-01 1.250000e-03 0.000000e+00
      vertex 1.268858e-01 -1.250000e-03 0.000000e+00
      vertex -1.150000e-01 -1.250000e-03 0.000000e+00
    endloop
  endfacet
  facet normal 0.000000e+00 0.000000e+00 -1.000000e+00
    outer loop
      vertex 1.174570e-01 1.250000e-03 0.000000e+00
      vertex -1.150000e-01 -1.250000e-03 0.000000e+00
      vertex -1.150000e-01 1.250000e-03 0.000000e+00
    endloop
  endfacet
  facet normal -0.000000e+00 0.000000e+00 1.000000e+00
    outer loop
      vertex 1.276000e-01 1.250000e-03 1.050000e-01
      vertex 1.174570e-01 1.250000e-03 1.050000e-01
      vertex 1.268858e-01 -1.250000e-03 1.050000e-01
    endloop
  endfacet
  facet normal 0.000000e+00 0.000000e+00 1.000000e+00
    outer loop
      vertex 1.268858e-01 -1.250000e-03 1.050000e-01
      vertex 1.174570e-01 1.250000e-03 1.050000e-01
      vertex -1.150000e-01 -1.250000e-03 1.050000e-01
    endloop
  endfacet
  facet normal -0.000000e+00 0.000000e+00 1.000000e+00
    outer loop
      vertex 1.174570e-01 1.250000e-03 1.050000e-01
      vertex -1.150000e-01 1.250000e-03 1.050000e-01
      vertex -1.150000e-01 -1.250000e-03 1.050000e-01
    endloop
  endfacet
  facet normal -9.615240e-01 2.747212e-01 0.000000e+00
    outer loop
      vertex 1.429278e-01 6.399721e-02 2.091574e-02
      vertex 1.270722e-01 8.502789e-03 2.417596e-03
      vertex 1.429278e-01 6.399721e-02 8.408426e-02
    endloop
  endfacet
  facet normal -9.615240e-01 2.747212e-01 0.000000e+00
    outer loop
      vertex 1.429278e-01 6.399721e-02 8.408426e-02
      vertex 1.270722e-01 8.502789e-03 2.417596e-03
      vertex 1.270722e-01 8.502789e-03 1.025824e-01
    endloop
  endfacet
  facet normal -0.000000e+00 1.000000e+00 0.000000e+00
    outer loop
      vertex 1.948296e-01 7.125000e-02 5.379409e-02
      vertex 1.943301e-01 7.125000e-02 5.500000e-02
      vertex 2.000000e-01 7.125000e-02 8.250000e-02
    endloop
  endfacet
  facet normal 0.000000e+00 1.000000e+00 -0.000000e+00
    outer loop
      vertex 2.000000e-01 7.125000e-02 8.250000e-02
      vertex 1.943301e-01 7.125000e-02 5.500000e-02
      vertex 1.935355e-01 7.125000e-02 5.603553e-02
    endloop
  endfacet
  facet normal 0.000000e+00 1.000000e+00 -0.000000e+00
    outer loop
      vertex 2.000000e-01 7.125000e-02 8.250000e-02
      vertex 1.935355e-01 7.125000e-02 5.603553e-02
      vertex 1.925000e-01 7.125000e-02 5.683013e-02
    endloop
  endfacet
  facet normal -0.000000e+00 1.000000e+00 0.000000e+00
    outer loop
      vertex 2.000000e-01 7.125000e-02 2.250000e-02
      vertex 1.925000e-01 7.125000e-02 4.816987e-02
      vertex 1.935355e-01 7.125000e-02 4.896447e-02
    endloop
  endfacet
  facet normal 0.000000e+00 1.000000e+00 0.000000e+00
    outer loop
      vertex 1.525430e-01 7.125000e-02 2.250000e-02
      vertex 1.525430e-01 7.125000e-02 8.250000e-02
      vertex 1.850000e-01 7.125000e-02 5.250000e-02
    endloop
  endfacet
  facet normal 0.000000e+00 1.000000e+00 -0.000000e+00
    outer loop
      vertex 2.000000e-01 7.125000e-02 8.250000e-02
      vertex 1.925000e-01 7.125000e-02 5.683013e-02
      vertex 1.912941e-01 7.125000e-02 5.732963e-02
    endloop
  endfacet
  facet normal 0.000000e+00 1.000000e+00 0.000000e+00
    outer loop
      vertex 1.887059e-01 7.125000e-02 4.767037e-02
      vertex 2.000000e-01 7.125000e-02 2.250000e-02
      vertex 1.875000e-01 7.125000e-02 4.816987e-02
    endloop
  endfacet
  facet normal 0.000000e+00 1.000000e+00 0.000000e+00
    outer loop
      vertex 1.875000e-01 7.125000e-02 4.816987e-02
      vertex 2.000000e-01 7.125000e-02 2.250000e-02
      vertex 1.525430e-01 7.125000e-02 2.250000e-02
    endloop
  endfacet
  facet normal 0.000000e+00 1.000000e+00 0.000000e+00
    outer loop
      vertex 1.875000e-01 7.125000e-02 4.816987e-02
      vertex 1.525430e-01 7.125000e-02 2.250000e-02
      vertex 1.864645e-01 7.125000e-02 4.896447e-02
    endloop
  endfacet
  facet normal 0.000000e+00 1.000000e+00 0.000000e+00
    outer loop
      vertex 1.948296e-01 7.125000e-02 5.379409e-02
      vertex 2.000000e-01 7.125000e-02 8.250000e-02
      vertex 1.950000e-01 7.125000e-02 5.250000e-02
    endloop
  endfacet
  facet normal 0.000000e+00 1.000000e+00 0.000000e+00
    outer loop
      vertex 1.950000e-01 7.125000e-02 5.250000e-02
      vertex 2.000000e-01 7.125000e-02 8.250000e-02
      vertex 2.000000e-01 7.125000e-02 2.250000e-02
    endloop
  endfacet
  facet normal 0.000000e+00 1.000000e+00 -0.000000e+00
    outer loop
      vertex 1.864645e-01 7.125000e-02 5.603553e-02
      vertex 1.856699e-01 7.125000e-02 5.500000e-02
      vertex 1.525430e-01 7.125000e-02 8.250000e-02
    endloop
  endfacet
  facet normal 0.000000e+00 1.000000e+00 0.000000e+00
    outer loop
      vertex 1.525430e-01 7.125000e-02 8.250000e-02
      vertex 1.856699e-01 7.125000e-02 5.500000e-02
      vertex 1.851704e-01 7.125000e-02 5.379409e-02
    endloop
  endfacet
  facet normal 0.000000e+00 1.000000e+00 0.000000e+00
    outer loop
      vertex 1.525430e-01 7.125000e-02 8.250000e-02
      vertex 1.851704e-01 7.125000e-02 5.379409e-02
      vertex 1.850000e-01 7.125000e-02 5.250000e-02
    endloop
  endfacet
  facet normal 0.000000e+00 1.000000e+00 0.000000e+00
    outer loop
      vertex 1.887059e-01 7.125000e-02 4.767037e-02
      vertex 1.900000e-01 7.125000e-02 4.750000e-02
      vertex 2.000000e-01 7.125000e-02 2.250000e-02
    endloop
  endfacet
  facet normal -0.000000e+00 1.000000e+00 0.000000e+00
    outer loop
      vertex 2.000000e-01 7.125000e-02 2.250000e-02
      vertex 1.900000e-01 7.125000e-02 4.750000e-02
      vertex 1.912941e-01 7.125000e-02 4.767037e-02
    endloop
  endfacet
  facet normal -0.000000e+00 1.000000e+00 0.000000e+00
    outer loop
      vertex 2.000000e-01 7.125000e-02 2.250000e-02
      vertex 1.912941e-01 7.125000e-02 4.767037e-02
      vertex 1.925000e-01 7.125000e-02 4.816987e-02
    endloop
  endfacet
  facet normal 0.000000e+00 1.000000e+00 0.000000e+00
    outer loop
      vertex 1.850000e-01 7.125000e-02 5.250000e-02
      vertex 1.851704e-01 7.125000e-02 5.120590e-02
      vertex 1.525430e-01 7.125000e-02 2.250000e-02
    endloop
  endfacet
  facet normal 0.000000e+00 1.000000e+00 0.000000e+00
    outer loop
      vertex 1.525430e-01 7.125000e-02 2.250000e-02
      vertex 1.851704e-01 7.125000e-02 5.120590e-02
      vertex 1.856699e-01 7.125000e-02 5.000000e-02
    endloop
  endfacet
  facet normal 0.000000e+00 1.000000e+00 0.000000e+00
    outer loop
      vertex 1.525430e-01 7.125000e-02 2.250000e-02
      vertex 1.856699e-01 7.125000e-02 5.000000e-02
      vertex 1.864645e-01 7.125000e-02 4.896447e-02
    endloop
  endfacet
  facet normal 0.000000e+00 1.000000e+00 0.000000e+00
    outer loop
      vertex 1.935355e-01 7.125000e-02 4.896447e-02
      vertex 1.943301e-01 7.125000e-02 5.000000e-02
      vertex 2.000000e-01 7.125000e-02 2.250000e-02
    endloop
  endfacet
  facet normal -0.000000e+00 1.000000e+00 0.000000e+00
    outer loop
      vertex 2.000000e-01 7.125000e-02 2.250000e-02
      vertex 1.943301e-01 7.125000e-02 5.000000e-02
      vertex 1.948296e-01 7.125000e-02 5.120590e-02
    endloop
  endfacet
  facet normal -0.000000e+00 1.000000e+00 0.000000e+00
    outer loop
      vertex 2.000000e-01 7.125000e-02 2.250000e-02
      vertex 1.948296e-01 7.125000e-02 5.120590e-02
      vertex 1.950000e-01 7.125000e-02 5.250000e-02
    endloop
  endfacet
  facet normal -0.000000e+00 1.000000e+00 0.000000e+00
    outer loop
      vertex 1.912941e-01 7.125000e-02 5.732963e-02
      vertex 1.900000e-01 7.125000e-02 5.750000e-02
      vertex 2.000000e-01 7.125000e-02 8.250000e-02
    endloop
  endfacet
  facet normal 0.000000e+00 1.000000e+00 -0.000000e+00
    outer loop
      vertex 2.000000e-01 7.125000e-02 8.250000e-02
      vertex 1.900000e-01 7.125000e-02 5.750000e-02
      vertex 1.887059e-01 7.125000e-02 5.732963e-02
    endloop
  endfacet
  facet normal 0.000000e+00 1.000000e+00 -0.000000e+00
    outer loop
      vertex 2.000000e-01 7.125000e-02 8.250000e-02
      vertex 1.887059e-01 7.125000e-02 5.732963e-02
      vertex 1.525430e-01 7.125000e-02 8.250000e-02
    endloop
  endfacet
  facet normal 0.000000e+00 1.000000e+00 0.000000e+00
    outer loop
      vertex 1.525430e-01 7.125000e-02 8.250000e-02
      vertex 1.887059e-01 7.125000e-02 5.732963e-02
      vertex 1.875000e-01 7.125000e-02 5.683013e-02
    endloop
  endfacet
  facet normal 0.000000e+00 1.000000e+00 0.000000e+00
    outer loop
      vertex 1.525430e-01 7.125000e-02 8.250000e-02
      vertex 1.875000e-01 7.125000e-02 5.683013e-02
      vertex 1.864645e-01 7.125000e-02 5.603553e-02
    endloop
  endfacet
  facet normal 1.000000e+00 0.000000e+00 0.000000e+00
    outer loop
      vertex 2.000000e-01 6.875000e-02 2.250000e-02
      vertex 2.000000e-01 7.125000e-02 2.250000e-02
      vertex 2.000000e-01 6.875000e-02 8.250000e-02
    endloop
  endfacet
  facet normal 1.000000e+00 0.000000e+00 -0.000000e+00
    outer loop
      vertex 2.000000e-01 6.875000e-02 8.250000e-02
      vertex 2.000000e-01 7.125000e-02 2.250000e-02
      vertex 2.000000e-01 7.125000e-02 8.250000e-02
    endloop
  endfacet
  facet normal 0.000000e+00 -1.000000e+00 0.000000e+00
    outer loop
      vertex 1.935355e-01 6.875000e-02 5.603553e-02
      vertex 1.943301e-01 6.875000e-02 5.500000e-02
      vertex 2.000000e-01 6.875000e-02 8.250000e-02
    endloop
  endfacet
  facet normal 0.000000e+00 -1.000000e+00 0.000000e+00
    outer loop
      vertex 2.000000e-01 6.875000e-02 8.250000e-02
      vertex 1.943301e-01 6.875000e-02 5.500000e-02
      vertex 1.948296e-01 6.875000e-02 5.379409e-02
    endloop
  endfacet
  facet normal 0.000000e+00 -1.000000e+00 0.000000e+00
    outer loop
      vertex 2.000000e-01 6.875000e-02 8.250000e-02
      vertex 1.948296e-01 6.875000e-02 5.379409e-02
      vertex 1.950000e-01 6.875000e-02 5.250000e-02
    endloop
  endfacet
  facet normal 0.000000e+00 -1.000000e+00 0.000000e+00
    outer loop
      vertex 2.000000e-01 6.875000e-02 8.250000e-02
      vertex 1.925000e-01 6.875000e-02 5.683013e-02
      vertex 1.935355e-01 6.875000e-02 5.603553e-02
    endloop
  endfacet
  facet normal 0.000000e+00 -1.000000e+00 0.000000e+00
    outer loop
      vertex 1.887059e-01 6.875000e-02 4.767037e-02
      vertex 1.544288e-01 6.875000e-02 2.250000e-02
      vertex 1.900000e-01 6.875000e-02 4.750000e-02
    endloop
  endfacet
  facet normal 0.000000e+00 -1.000000e+00 0.000000e+00
    outer loop
      vertex 1.900000e-01 6.875000e-02 4.750000e-02
      vertex 1.544288e-01 6.875000e-02 2.250000e-02
      vertex 2.000000e-01 6.875000e-02 2.250000e-02
    endloop
  endfacet
  facet normal 0.000000e+00 -1.000000e+00 0.000000e+00
    outer loop
      vertex 1.900000e-01 6.875000e-02 4.750000e-02
      vertex 2.000000e-01 6.875000e-02 2.250000e-02
      vertex 1.912941e-01 6.875000e-02 4.767037e-02
    endloop
  endfacet
  facet normal 0.000000e+00 -1.000000e+00 0.000000e+00
    outer loop
      vertex 2.000000e-01 6.875000e-02 8.250000e-02
      vertex 1.950000e-01 6.875000e-02 5.250000e-02
      vertex 2.000000e-01 6.875000e-02 2.250000e-02
    endloop
  endfacet
  facet normal 0.000000e+00 -1.000000e+00 -0.000000e+00
    outer loop
      vertex 2.000000e-01 6.875000e-02 2.250000e-02
      vertex 1.950000e-01 6.875000e-02 5.250000e-02
      vertex 1.948296e-01 6.875000e-02 5.120590e-02
    endloop
  endfacet
  facet normal 0.000000e+00 -1.000000e+00 -0.000000e+00
    outer loop
      vertex 2.000000e-01 6.875000e-02 2.250000e-02
      vertex 1.948296e-01 6.875000e-02 5.120590e-02
      vertex 1.943301e-01 6.875000e-02 5.000000e-02
    endloop
  endfacet
  facet normal 0.000000e+00 -1.000000e+00 0.000000e+00
    outer loop
      vertex 2.000000e-01 6.875000e-02 8.250000e-02
      vertex 1.544288e-01 6.875000e-02 8.250000e-02
      vertex 1.887059e-01 6.875000e-02 5.732963e-02
    endloop
  endfacet
  facet normal 0.000000e+00 -1.000000e+00 0.000000e+00
    outer loop
      vertex 1.887059e-01 6.875000e-02 5.732963e-02
      vertex 1.544288e-01 6.875000e-02 8.250000e-02
      vertex 1.875000e-01 6.875000e-02 5.683013e-02
    endloop
  endfacet
  facet normal 0.000000e+00 -1.000000e+00 0.000000e+00
    outer loop
      vertex 1.864645e-01 6.875000e-02 4.896447e-02
      vertex 1.544288e-01 6.875000e-02 2.250000e-02
      vertex 1.875000e-01 6.875000e-02 4.816987e-02
    endloop
  endfacet
  facet normal 0.000000e+00 -1.000000e+00 0.000000e+00
    outer loop
      vertex 1.875000e-01 6.875000e-02 4.816987e-02
      vertex 1.544288e-01 6.875000e-02 2.250000e-02
      vertex 1.887059e-01 6.875000e-02 4.767037e-02
    endloop
  endfacet
  facet normal 0.000000e+00 -1.000000e+00 0.000000e+00
    outer loop
      vertex 1.943301e-01 6.875000e-02 5.000000e-02
      vertex 1.935355e-01 6.875000e-02 4.896447e-02
      vertex 2.000000e-01 6.875000e-02 2.250000e-02
    endloop
  endfacet
  facet normal 0.000000e+00 -1.000000e+00 -0.000000e+00
    outer loop
      vertex 2.000000e-01 6.875000e-02 2.250000e-02
      vertex 1.935355e-01 6.875000e-02 4.896447e-02
      vertex 1.925000e-01 6.875000e-02 4.816987e-02
    endloop
  endfacet
  facet normal 0.000000e+00 -1.000000e+00 -0.000000e+00
    outer loop
      vertex 2.000000e-01 6.875000e-02 2.250000e-02
      vertex 1.925000e-01 6.875000e-02 4.816987e-02
      vertex 1.912941e-01 6.875000e-02 4.767037e-02
    endloop
  endfacet
  facet normal -0.000000e+00 -1.000000e+00 0.000000e+00
    outer loop
      vertex 1.887059e-01 6.875000e-02 5.732963e-02
      vertex 1.900000e-01 6.875000e-02 5.750000e-02
      vertex 2.000000e-01 6.875000e-02 8.250000e-02
    endloop
  endfacet
  facet normal 0.000000e+00 -1.000000e+00 0.000000e+00
    outer loop
      vertex 2.000000e-01 6.875000e-02 8.250000e-02
      vertex 1.900000e-01 6.875000e-02 5.750000e-02
      vertex 1.912941e-01 6.875000e-02 5.732963e-02
    endloop
  endfacet
  facet normal 0.000000e+00 -1.000000e+00 0.000000e+00
    outer loop
      vertex 2.000000e-01 6.875000e-02 8.250000e-02
      vertex 1.912941e-01 6.875000e-02 5.732963e-02
      vertex 1.925000e-01 6.875000e-02 5.683013e-02
    endloop
  endfacet
  facet normal 0.000000e+00 -1.000000e+00 -0.000000e+00
    outer loop
      vertex 1.864645e-01 6.875000e-02 4.896447e-02
      vertex 1.856699e-01 6.875000e-02 5.000000e-02
      vertex 1.544288e-01 6.875000e-02 2.250000e-02
    endloop
  endfacet
  facet normal -0.000000e+00 -1.000000e+00 0.000000e+00
    outer loop
      vertex 1.544288e-01 6.875000e-02 2.250000e-02
      vertex 1.856699e-01 6.875000e-02 5.000000e-02
      vertex 1.851704e-01 6.875000e-02 5.120590e-02
    endloop
  endfacet
  facet normal -0.000000e+00 -1.000000e+00 0.000000e+00
    outer loop
      vertex 1.544288e-01 6.875000e-02 2.250000e-02
      vertex 1.851704e-01 6.875000e-02 5.120590e-02
      vertex 1.544288e-01 6.875000e-02 8.250000e-02
    endloop
  endfacet
  facet normal 0.000000e+00 -1.000000e+00 0.000000e+00
    outer loop
      vertex 1.544288e-01 6.875000e-02 8.250000e-02
      vertex 1.851704e-01 6.875000e-02 5.120590e-02
      vertex 1.850000e-01 6.875000e-02 5.250000e-02
    endloop
  endfacet
  facet normal 0.000000e+00 -1.000000e+00 0.000000e+00
    outer loop
      vertex 1.544288e-01 6.875000e-02 8.250000e-02
      vertex 1.850000e-01 6.875000e-02 5.250000e-02
      vertex 1.851704e-01 6.875000e-02 5.379409e-02
    endloop
  endfacet
  facet normal -0.000000e+00 -1.000000e+00 0.000000e+00
    outer loop
      vertex 1.851704e-01 6.875000e-02 5.379409e-02
      vertex 1.856699e-01 6.875000e-02 5.500000e-02
      vertex 1.544288e-01 6.875000e-02 8.250000e-02
    endloop
  endfacet
  facet normal 0.000000e+00 -1.000000e+00 0.000000e+00
    outer loop
      vertex 1.544288e-01 6.875000e-02 8.250000e-02
      vertex 1.856699e-01 6.875000e-02 5.500000e-02
      vertex 1.864645e-01 6.875000e-02 5.603553e-02
    endloop
  endfacet
  facet normal 0.000000e+00 -1.000000e+00 0.000000e+00
    outer loop
      vertex 1.544288e-01 6.875000e-02 8.250000e-02
      vertex 1.864645e-01 6.875000e-02 5.603553e-02
      vertex 1.875000e-01 6.875000e-02 5.683013e-02
    endloop
  endfacet
  facet normal 9.615238e-01 -2.747217e-01 0.000000e+00
    outer loop
      vertex 1.268858e-01 -1.250000e-03 0.000000e+00
      vertex 1.276000e-01 1.250000e-03 0.000000e+00
      vertex 1.268858e-01 -1.250000e-03 1.050000e-01
    endloop
  endfacet
  facet normal 9.615238e-01 -2.747217e-01 0.000000e+00
    outer loop
      vertex 1.268858e-01 -1.250000e-03 1.050000e-01
      vertex 1.276000e-01 1.250000e-03 0.000000e+00
      vertex 1.276000e-01 1.250000e-03 1.050000e-01
    endloop
  endfacet
  facet normal 9.615240e-01 -2.747210e-01 0.000000e+00
    outer loop
      vertex 1.448135e-01 6.149721e-02 8.491760e-02
      vertex 1.276000e-01 1.250000e-03 1.050000e-01
      vertex 1.448135e-01 6.149721e-02 2.008240e-02
    endloop
  endfacet
  facet normal 9.615240e-01 -2.747210e-01 0.000000e+00
    outer loop
      vertex 1.448135e-01 6.149721e-02 2.008240e-02
      vertex 1.276000e-01 1.250000e-03 1.050000e-01
      vertex 1.276000e-01 1.250000e-03 0.000000e+00
    endloop
  endfacet
endsolid
